<mxfile host="app.diagrams.net" agent="Mozilla/5.0 (X11; Linux x86_64) AppleWebKit/537.36 (KHTML, like Gecko) Chrome/125.0.0.0 Safari/537.36" version="24.7.6" pages="12">
  <diagram id="fNUM63voZhJdDRkvop21" name="daydream">
    <mxGraphModel dx="1688" dy="649" grid="1" gridSize="10" guides="1" tooltips="1" connect="1" arrows="1" fold="1" page="1" pageScale="1" pageWidth="850" pageHeight="1100" math="0" shadow="0">
      <root>
        <mxCell id="0" />
        <mxCell id="1" parent="0" />
        <mxCell id="aqBzfXqptcj9Zp8Z2guC-2" value="" style="rounded=1;whiteSpace=wrap;html=1;" parent="1" vertex="1">
          <mxGeometry x="110" y="260" width="610" height="720" as="geometry" />
        </mxCell>
        <mxCell id="uSH1U3DIayxIrNME1u4N-1" value="" style="group" vertex="1" connectable="0" parent="1">
          <mxGeometry x="60" y="500" width="580" height="60" as="geometry" />
        </mxCell>
        <mxCell id="aqBzfXqptcj9Zp8Z2guC-23" value="" style="rounded=1;whiteSpace=wrap;html=1;" parent="uSH1U3DIayxIrNME1u4N-1" vertex="1">
          <mxGeometry x="110" width="470" height="60" as="geometry" />
        </mxCell>
        <mxCell id="aqBzfXqptcj9Zp8Z2guC-33" value="" style="shape=flexArrow;endArrow=classic;startArrow=classic;html=1;rounded=0;entryX=0;entryY=0.5;entryDx=0;entryDy=0;" parent="uSH1U3DIayxIrNME1u4N-1" target="aqBzfXqptcj9Zp8Z2guC-23" edge="1">
          <mxGeometry width="100" height="100" relative="1" as="geometry">
            <mxPoint y="30" as="sourcePoint" />
            <mxPoint x="420" y="20" as="targetPoint" />
          </mxGeometry>
        </mxCell>
        <mxCell id="aqBzfXqptcj9Zp8Z2guC-34" value="l2 port" style="text;html=1;strokeColor=none;fillColor=none;align=center;verticalAlign=middle;whiteSpace=wrap;rounded=0;" parent="uSH1U3DIayxIrNME1u4N-1" vertex="1">
          <mxGeometry x="30" width="60" height="30" as="geometry" />
        </mxCell>
        <mxCell id="aqBzfXqptcj9Zp8Z2guC-24" value="lsu" style="text;html=1;strokeColor=none;fillColor=none;align=center;verticalAlign=middle;whiteSpace=wrap;rounded=0;" parent="uSH1U3DIayxIrNME1u4N-1" vertex="1">
          <mxGeometry x="335" y="15" width="60" height="30" as="geometry" />
        </mxCell>
        <mxCell id="aqBzfXqptcj9Zp8Z2guC-3" value="" style="rounded=1;whiteSpace=wrap;html=1;" parent="1" vertex="1">
          <mxGeometry x="170" y="330" width="470" height="60" as="geometry" />
        </mxCell>
        <mxCell id="aqBzfXqptcj9Zp8Z2guC-4" value="scheduler" style="text;html=1;strokeColor=none;fillColor=none;align=center;verticalAlign=middle;whiteSpace=wrap;rounded=0;" parent="1" vertex="1">
          <mxGeometry x="375" y="345" width="60" height="30" as="geometry" />
        </mxCell>
        <mxCell id="aqBzfXqptcj9Zp8Z2guC-6" value="" style="rounded=1;whiteSpace=wrap;html=1;" parent="1" vertex="1">
          <mxGeometry x="170" y="420" width="470" height="60" as="geometry" />
        </mxCell>
        <mxCell id="aqBzfXqptcj9Zp8Z2guC-7" value="mask unit" style="text;html=1;strokeColor=none;fillColor=none;align=center;verticalAlign=middle;whiteSpace=wrap;rounded=0;" parent="1" vertex="1">
          <mxGeometry x="375" y="435" width="60" height="30" as="geometry" />
        </mxCell>
        <mxCell id="aqBzfXqptcj9Zp8Z2guC-8" value="" style="rounded=1;whiteSpace=wrap;html=1;" parent="1" vertex="1">
          <mxGeometry x="170" y="640" width="60" height="310" as="geometry" />
        </mxCell>
        <mxCell id="aqBzfXqptcj9Zp8Z2guC-11" value="lane" style="text;html=1;strokeColor=none;fillColor=none;align=center;verticalAlign=middle;whiteSpace=wrap;rounded=0;" parent="1" vertex="1">
          <mxGeometry x="170" y="710" width="60" height="30" as="geometry" />
        </mxCell>
        <mxCell id="aqBzfXqptcj9Zp8Z2guC-12" value="" style="rounded=1;whiteSpace=wrap;html=1;" parent="1" vertex="1">
          <mxGeometry x="170" y="580" width="60" height="60" as="geometry" />
        </mxCell>
        <mxCell id="aqBzfXqptcj9Zp8Z2guC-13" value="rf(sram/reg)" style="text;html=1;strokeColor=none;fillColor=none;align=center;verticalAlign=middle;whiteSpace=wrap;rounded=0;" parent="1" vertex="1">
          <mxGeometry x="170" y="585" width="60" height="30" as="geometry" />
        </mxCell>
        <mxCell id="aqBzfXqptcj9Zp8Z2guC-22" value="......" style="text;html=1;strokeColor=none;fillColor=none;align=center;verticalAlign=middle;whiteSpace=wrap;rounded=0;" parent="1" vertex="1">
          <mxGeometry x="350" y="660" width="60" height="30" as="geometry" />
        </mxCell>
        <mxCell id="aqBzfXqptcj9Zp8Z2guC-27" value="" style="rounded=1;whiteSpace=wrap;html=1;" parent="1" vertex="1">
          <mxGeometry x="580" y="640" width="60" height="310" as="geometry" />
        </mxCell>
        <mxCell id="aqBzfXqptcj9Zp8Z2guC-28" value="lane" style="text;html=1;strokeColor=none;fillColor=none;align=center;verticalAlign=middle;whiteSpace=wrap;rounded=0;" parent="1" vertex="1">
          <mxGeometry x="580" y="710" width="60" height="30" as="geometry" />
        </mxCell>
        <mxCell id="aqBzfXqptcj9Zp8Z2guC-37" value="" style="rounded=1;whiteSpace=wrap;html=1;" parent="1" vertex="1">
          <mxGeometry x="260" y="640" width="60" height="310" as="geometry" />
        </mxCell>
        <mxCell id="aqBzfXqptcj9Zp8Z2guC-38" value="lane" style="text;html=1;strokeColor=none;fillColor=none;align=center;verticalAlign=middle;whiteSpace=wrap;rounded=0;" parent="1" vertex="1">
          <mxGeometry x="260" y="710" width="60" height="30" as="geometry" />
        </mxCell>
        <mxCell id="uSH1U3DIayxIrNME1u4N-2" value="" style="group" vertex="1" connectable="0" parent="1">
          <mxGeometry x="260" y="580" width="60" height="60" as="geometry" />
        </mxCell>
        <mxCell id="aqBzfXqptcj9Zp8Z2guC-39" value="" style="rounded=1;whiteSpace=wrap;html=1;" parent="uSH1U3DIayxIrNME1u4N-2" vertex="1">
          <mxGeometry width="60" height="60" as="geometry" />
        </mxCell>
        <mxCell id="aqBzfXqptcj9Zp8Z2guC-40" value="rf(sram)" style="text;html=1;strokeColor=none;fillColor=none;align=center;verticalAlign=middle;whiteSpace=wrap;rounded=0;" parent="uSH1U3DIayxIrNME1u4N-2" vertex="1">
          <mxGeometry y="15" width="60" height="30" as="geometry" />
        </mxCell>
        <mxCell id="uSH1U3DIayxIrNME1u4N-4" value="" style="group" vertex="1" connectable="0" parent="1">
          <mxGeometry x="580" y="580" width="60" height="60" as="geometry" />
        </mxCell>
        <mxCell id="aqBzfXqptcj9Zp8Z2guC-29" value="" style="rounded=1;whiteSpace=wrap;html=1;" parent="uSH1U3DIayxIrNME1u4N-4" vertex="1">
          <mxGeometry width="60" height="60" as="geometry" />
        </mxCell>
        <mxCell id="uSH1U3DIayxIrNME1u4N-3" value="" style="group" vertex="1" connectable="0" parent="uSH1U3DIayxIrNME1u4N-4">
          <mxGeometry width="60" height="60" as="geometry" />
        </mxCell>
        <mxCell id="aqBzfXqptcj9Zp8Z2guC-30" value="rf(sram)" style="text;html=1;strokeColor=none;fillColor=none;align=center;verticalAlign=middle;whiteSpace=wrap;rounded=0;" parent="uSH1U3DIayxIrNME1u4N-3" vertex="1">
          <mxGeometry y="15" width="60" height="30" as="geometry" />
        </mxCell>
      </root>
    </mxGraphModel>
  </diagram>
  <diagram id="x4buK4fLDCG3RSLW5vKL" name="VFU">
    <mxGraphModel dx="2462" dy="947" grid="1" gridSize="10" guides="1" tooltips="1" connect="1" arrows="1" fold="1" page="1" pageScale="1" pageWidth="850" pageHeight="1100" math="0" shadow="0">
      <root>
        <mxCell id="0" />
        <mxCell id="1" parent="0" />
        <mxCell id="17EXOa0sgDzPuaJ0CHGv-1" value="" style="rounded=1;whiteSpace=wrap;html=1;" parent="1" vertex="1">
          <mxGeometry x="130" y="210" width="610" height="630" as="geometry" />
        </mxCell>
        <mxCell id="17EXOa0sgDzPuaJ0CHGv-19" value="" style="shape=flexArrow;endArrow=classic;startArrow=classic;html=1;rounded=0;" parent="1" edge="1">
          <mxGeometry width="100" height="100" relative="1" as="geometry">
            <mxPoint x="434.5" y="240" as="sourcePoint" />
            <mxPoint x="434.5" y="180" as="targetPoint" />
          </mxGeometry>
        </mxCell>
        <mxCell id="17EXOa0sgDzPuaJ0CHGv-29" value="" style="rounded=1;whiteSpace=wrap;html=1;" parent="1" vertex="1">
          <mxGeometry x="185" y="250" width="500" height="60" as="geometry" />
        </mxCell>
        <mxCell id="17EXOa0sgDzPuaJ0CHGv-32" value="request wire" style="text;html=1;strokeColor=none;fillColor=none;align=center;verticalAlign=middle;whiteSpace=wrap;rounded=0;" parent="1" vertex="1">
          <mxGeometry x="377.5" y="265" width="115" height="30" as="geometry" />
        </mxCell>
        <mxCell id="17EXOa0sgDzPuaJ0CHGv-33" value="" style="rounded=1;whiteSpace=wrap;html=1;" parent="1" vertex="1">
          <mxGeometry x="825" y="350" width="50" height="270" as="geometry" />
        </mxCell>
        <mxCell id="17EXOa0sgDzPuaJ0CHGv-34" value="logic" style="text;html=1;strokeColor=none;fillColor=none;align=center;verticalAlign=middle;whiteSpace=wrap;rounded=0;" parent="1" vertex="1">
          <mxGeometry x="820" y="460" width="60" height="30" as="geometry" />
        </mxCell>
        <mxCell id="17EXOa0sgDzPuaJ0CHGv-35" value="" style="rounded=1;whiteSpace=wrap;html=1;" parent="1" vertex="1">
          <mxGeometry x="885" y="350" width="50" height="270" as="geometry" />
        </mxCell>
        <mxCell id="17EXOa0sgDzPuaJ0CHGv-36" value="&lt;span style=&quot;color: rgb(51, 51, 51); font-family: &amp;quot;Open Sans&amp;quot;, &amp;quot;Clear Sans&amp;quot;, &amp;quot;Helvetica Neue&amp;quot;, Helvetica, Arial, &amp;quot;Segoe UI Emoji&amp;quot;, sans-serif; font-size: 16px; orphans: 4; text-align: start; background-color: rgb(255, 255, 255);&quot;&gt;arithmetic&lt;/span&gt;" style="text;html=1;strokeColor=none;fillColor=none;align=center;verticalAlign=middle;whiteSpace=wrap;rounded=0;direction=west;rotation=90;" parent="1" vertex="1">
          <mxGeometry x="865" y="470" width="90" height="30" as="geometry" />
        </mxCell>
        <mxCell id="17EXOa0sgDzPuaJ0CHGv-37" value="" style="rounded=1;whiteSpace=wrap;html=1;" parent="1" vertex="1">
          <mxGeometry x="945" y="350" width="50" height="270" as="geometry" />
        </mxCell>
        <mxCell id="17EXOa0sgDzPuaJ0CHGv-38" value="shift" style="text;html=1;strokeColor=none;fillColor=none;align=center;verticalAlign=middle;whiteSpace=wrap;rounded=0;" parent="1" vertex="1">
          <mxGeometry x="940" y="460" width="60" height="30" as="geometry" />
        </mxCell>
        <mxCell id="17EXOa0sgDzPuaJ0CHGv-39" value="" style="rounded=1;whiteSpace=wrap;html=1;" parent="1" vertex="1">
          <mxGeometry x="1005" y="350" width="50" height="270" as="geometry" />
        </mxCell>
        <mxCell id="17EXOa0sgDzPuaJ0CHGv-40" value="mul" style="text;html=1;strokeColor=none;fillColor=none;align=center;verticalAlign=middle;whiteSpace=wrap;rounded=0;" parent="1" vertex="1">
          <mxGeometry x="1000" y="460" width="60" height="30" as="geometry" />
        </mxCell>
        <mxCell id="17EXOa0sgDzPuaJ0CHGv-41" value="" style="rounded=1;whiteSpace=wrap;html=1;" parent="1" vertex="1">
          <mxGeometry x="1060" y="350" width="50" height="270" as="geometry" />
        </mxCell>
        <mxCell id="17EXOa0sgDzPuaJ0CHGv-42" value="div" style="text;html=1;strokeColor=none;fillColor=none;align=center;verticalAlign=middle;whiteSpace=wrap;rounded=0;" parent="1" vertex="1">
          <mxGeometry x="1055" y="460" width="60" height="30" as="geometry" />
        </mxCell>
        <mxCell id="17EXOa0sgDzPuaJ0CHGv-43" value="" style="rounded=1;whiteSpace=wrap;html=1;" parent="1" vertex="1">
          <mxGeometry x="1120" y="350" width="50" height="270" as="geometry" />
        </mxCell>
        <mxCell id="17EXOa0sgDzPuaJ0CHGv-44" value="popcount" style="text;html=1;strokeColor=none;fillColor=none;align=center;verticalAlign=middle;whiteSpace=wrap;rounded=0;" parent="1" vertex="1">
          <mxGeometry x="1115" y="460" width="60" height="30" as="geometry" />
        </mxCell>
        <mxCell id="17EXOa0sgDzPuaJ0CHGv-48" value="" style="rounded=1;whiteSpace=wrap;html=1;" parent="1" vertex="1">
          <mxGeometry x="1180" y="350" width="50" height="270" as="geometry" />
        </mxCell>
        <mxCell id="17EXOa0sgDzPuaJ0CHGv-49" value="ffo" style="text;html=1;strokeColor=none;fillColor=none;align=center;verticalAlign=middle;whiteSpace=wrap;rounded=0;" parent="1" vertex="1">
          <mxGeometry x="1175" y="460" width="60" height="30" as="geometry" />
        </mxCell>
        <mxCell id="17EXOa0sgDzPuaJ0CHGv-50" value="" style="rounded=1;whiteSpace=wrap;html=1;" parent="1" vertex="1">
          <mxGeometry x="1240" y="350" width="50" height="270" as="geometry" />
        </mxCell>
        <mxCell id="17EXOa0sgDzPuaJ0CHGv-51" value="get index" style="text;html=1;strokeColor=none;fillColor=none;align=center;verticalAlign=middle;whiteSpace=wrap;rounded=0;" parent="1" vertex="1">
          <mxGeometry x="1235" y="460" width="60" height="30" as="geometry" />
        </mxCell>
        <mxCell id="17EXOa0sgDzPuaJ0CHGv-52" value="" style="rounded=1;whiteSpace=wrap;html=1;" parent="1" vertex="1">
          <mxGeometry x="1300" y="350" width="50" height="270" as="geometry" />
        </mxCell>
        <mxCell id="17EXOa0sgDzPuaJ0CHGv-53" value="other" style="text;html=1;strokeColor=none;fillColor=none;align=center;verticalAlign=middle;whiteSpace=wrap;rounded=0;" parent="1" vertex="1">
          <mxGeometry x="1295" y="460" width="60" height="30" as="geometry" />
        </mxCell>
        <mxCell id="17EXOa0sgDzPuaJ0CHGv-54" value="" style="rounded=1;whiteSpace=wrap;html=1;" parent="1" vertex="1">
          <mxGeometry x="185" y="650" width="500" height="60" as="geometry" />
        </mxCell>
        <mxCell id="17EXOa0sgDzPuaJ0CHGv-55" value="result select" style="text;html=1;strokeColor=none;fillColor=none;align=center;verticalAlign=middle;whiteSpace=wrap;rounded=0;" parent="1" vertex="1">
          <mxGeometry x="377.5" y="665" width="115" height="30" as="geometry" />
        </mxCell>
        <mxCell id="17EXOa0sgDzPuaJ0CHGv-56" value="" style="rounded=1;whiteSpace=wrap;html=1;" parent="1" vertex="1">
          <mxGeometry x="185" y="750" width="500" height="60" as="geometry" />
        </mxCell>
        <mxCell id="17EXOa0sgDzPuaJ0CHGv-57" value="result reg" style="text;html=1;strokeColor=none;fillColor=none;align=center;verticalAlign=middle;whiteSpace=wrap;rounded=0;" parent="1" vertex="1">
          <mxGeometry x="377.5" y="765" width="115" height="30" as="geometry" />
        </mxCell>
        <mxCell id="17EXOa0sgDzPuaJ0CHGv-58" value="req" style="text;html=1;strokeColor=none;fillColor=none;align=center;verticalAlign=middle;whiteSpace=wrap;rounded=0;" parent="1" vertex="1">
          <mxGeometry x="440" y="180" width="60" height="30" as="geometry" />
        </mxCell>
        <mxCell id="17EXOa0sgDzPuaJ0CHGv-59" value="" style="shape=flexArrow;endArrow=classic;startArrow=classic;html=1;rounded=0;" parent="1" edge="1">
          <mxGeometry width="100" height="100" relative="1" as="geometry">
            <mxPoint x="424" y="870" as="sourcePoint" />
            <mxPoint x="424" y="810" as="targetPoint" />
          </mxGeometry>
        </mxCell>
        <mxCell id="17EXOa0sgDzPuaJ0CHGv-60" value="resp" style="text;html=1;strokeColor=none;fillColor=none;align=center;verticalAlign=middle;whiteSpace=wrap;rounded=0;" parent="1" vertex="1">
          <mxGeometry x="425" y="840" width="60" height="30" as="geometry" />
        </mxCell>
        <mxCell id="9k3g9A0JYuQTAEoEo7Qp-1" value="" style="shape=flexArrow;endArrow=classic;startArrow=classic;html=1;rounded=0;entryX=0;entryY=1;entryDx=0;entryDy=0;exitX=1;exitY=0.446;exitDx=0;exitDy=0;exitPerimeter=0;" edge="1" parent="1" source="17EXOa0sgDzPuaJ0CHGv-1" target="17EXOa0sgDzPuaJ0CHGv-34">
          <mxGeometry width="100" height="100" relative="1" as="geometry">
            <mxPoint x="370" y="630" as="sourcePoint" />
            <mxPoint x="470" y="530" as="targetPoint" />
          </mxGeometry>
        </mxCell>
        <mxCell id="9k3g9A0JYuQTAEoEo7Qp-2" value="req" style="text;html=1;align=center;verticalAlign=middle;whiteSpace=wrap;rounded=0;" vertex="1" parent="1">
          <mxGeometry x="750" y="440" width="60" height="30" as="geometry" />
        </mxCell>
        <mxCell id="9k3g9A0JYuQTAEoEo7Qp-3" value="response" style="text;html=1;align=center;verticalAlign=middle;whiteSpace=wrap;rounded=0;" vertex="1" parent="1">
          <mxGeometry x="750" y="520" width="60" height="30" as="geometry" />
        </mxCell>
      </root>
    </mxGraphModel>
  </diagram>
  <diagram id="lO4mWhvdlKkIGpnEtRHu" name="2*3">
    <mxGraphModel dx="2954" dy="1136" grid="1" gridSize="10" guides="1" tooltips="1" connect="1" arrows="1" fold="1" page="1" pageScale="1" pageWidth="850" pageHeight="1100" math="0" shadow="0">
      <root>
        <mxCell id="0" />
        <mxCell id="1" parent="0" />
        <mxCell id="N_nt8bBofkA11kgLfIBK-1" value="" style="rounded=0;whiteSpace=wrap;html=1;" parent="1" vertex="1">
          <mxGeometry x="360" y="80" width="2000" height="3000" as="geometry" />
        </mxCell>
        <mxCell id="N_nt8bBofkA11kgLfIBK-3" value="" style="rounded=0;whiteSpace=wrap;html=1;direction=south;fillColor=#f5f5f5;fontColor=#333333;strokeColor=#666666;" parent="1" vertex="1">
          <mxGeometry x="360" y="80" width="100" height="3000" as="geometry" />
        </mxCell>
        <mxCell id="N_nt8bBofkA11kgLfIBK-4" value="" style="rounded=0;whiteSpace=wrap;html=1;fillColor=#f5f5f5;fontColor=#333333;strokeColor=#666666;" parent="1" vertex="1">
          <mxGeometry x="360" y="80" width="2000" height="100" as="geometry" />
        </mxCell>
        <mxCell id="N_nt8bBofkA11kgLfIBK-5" value="" style="rounded=0;whiteSpace=wrap;html=1;direction=south;fillColor=#f5f5f5;fontColor=#333333;strokeColor=#666666;" parent="1" vertex="1">
          <mxGeometry x="2260" y="80" width="100" height="3000" as="geometry" />
        </mxCell>
        <mxCell id="5Q0H06B_Tgws67LkEivO-1" value="" style="group" parent="1" vertex="1" connectable="0">
          <mxGeometry x="936" y="180" width="339" height="912" as="geometry" />
        </mxCell>
        <mxCell id="5Q0H06B_Tgws67LkEivO-2" value="" style="rounded=0;whiteSpace=wrap;html=1;direction=south;" parent="5Q0H06B_Tgws67LkEivO-1" vertex="1">
          <mxGeometry width="339" height="57" as="geometry" />
        </mxCell>
        <mxCell id="5Q0H06B_Tgws67LkEivO-3" value="" style="rounded=0;whiteSpace=wrap;html=1;direction=south;" parent="5Q0H06B_Tgws67LkEivO-1" vertex="1">
          <mxGeometry y="57" width="339" height="57" as="geometry" />
        </mxCell>
        <mxCell id="5Q0H06B_Tgws67LkEivO-4" value="" style="rounded=0;whiteSpace=wrap;html=1;direction=south;" parent="5Q0H06B_Tgws67LkEivO-1" vertex="1">
          <mxGeometry y="114" width="339" height="57" as="geometry" />
        </mxCell>
        <mxCell id="5Q0H06B_Tgws67LkEivO-5" value="" style="rounded=0;whiteSpace=wrap;html=1;direction=south;" parent="5Q0H06B_Tgws67LkEivO-1" vertex="1">
          <mxGeometry y="171" width="339" height="57" as="geometry" />
        </mxCell>
        <mxCell id="5Q0H06B_Tgws67LkEivO-6" value="" style="rounded=0;whiteSpace=wrap;html=1;direction=south;" parent="5Q0H06B_Tgws67LkEivO-1" vertex="1">
          <mxGeometry y="228" width="339" height="57" as="geometry" />
        </mxCell>
        <mxCell id="5Q0H06B_Tgws67LkEivO-7" value="" style="rounded=0;whiteSpace=wrap;html=1;direction=south;" parent="5Q0H06B_Tgws67LkEivO-1" vertex="1">
          <mxGeometry y="285" width="339" height="57" as="geometry" />
        </mxCell>
        <mxCell id="5Q0H06B_Tgws67LkEivO-8" value="" style="rounded=0;whiteSpace=wrap;html=1;direction=south;" parent="5Q0H06B_Tgws67LkEivO-1" vertex="1">
          <mxGeometry y="342" width="339" height="57" as="geometry" />
        </mxCell>
        <mxCell id="5Q0H06B_Tgws67LkEivO-9" value="" style="rounded=0;whiteSpace=wrap;html=1;direction=south;" parent="5Q0H06B_Tgws67LkEivO-1" vertex="1">
          <mxGeometry y="399" width="339" height="57" as="geometry" />
        </mxCell>
        <mxCell id="5Q0H06B_Tgws67LkEivO-10" value="" style="rounded=0;whiteSpace=wrap;html=1;direction=south;" parent="5Q0H06B_Tgws67LkEivO-1" vertex="1">
          <mxGeometry y="456" width="339" height="57" as="geometry" />
        </mxCell>
        <mxCell id="5Q0H06B_Tgws67LkEivO-11" value="" style="rounded=0;whiteSpace=wrap;html=1;direction=south;" parent="5Q0H06B_Tgws67LkEivO-1" vertex="1">
          <mxGeometry y="513" width="339" height="57" as="geometry" />
        </mxCell>
        <mxCell id="5Q0H06B_Tgws67LkEivO-12" value="" style="rounded=0;whiteSpace=wrap;html=1;direction=south;" parent="5Q0H06B_Tgws67LkEivO-1" vertex="1">
          <mxGeometry y="570" width="339" height="57" as="geometry" />
        </mxCell>
        <mxCell id="5Q0H06B_Tgws67LkEivO-13" value="" style="rounded=0;whiteSpace=wrap;html=1;direction=south;" parent="5Q0H06B_Tgws67LkEivO-1" vertex="1">
          <mxGeometry y="627" width="339" height="57" as="geometry" />
        </mxCell>
        <mxCell id="5Q0H06B_Tgws67LkEivO-14" value="" style="rounded=0;whiteSpace=wrap;html=1;direction=south;" parent="5Q0H06B_Tgws67LkEivO-1" vertex="1">
          <mxGeometry y="684" width="339" height="57" as="geometry" />
        </mxCell>
        <mxCell id="5Q0H06B_Tgws67LkEivO-15" value="" style="rounded=0;whiteSpace=wrap;html=1;direction=south;" parent="5Q0H06B_Tgws67LkEivO-1" vertex="1">
          <mxGeometry y="741" width="339" height="57" as="geometry" />
        </mxCell>
        <mxCell id="5Q0H06B_Tgws67LkEivO-16" value="" style="rounded=0;whiteSpace=wrap;html=1;direction=south;" parent="5Q0H06B_Tgws67LkEivO-1" vertex="1">
          <mxGeometry y="798" width="339" height="57" as="geometry" />
        </mxCell>
        <mxCell id="5Q0H06B_Tgws67LkEivO-17" value="" style="rounded=0;whiteSpace=wrap;html=1;direction=south;" parent="5Q0H06B_Tgws67LkEivO-1" vertex="1">
          <mxGeometry y="855" width="339" height="57" as="geometry" />
        </mxCell>
        <mxCell id="5Q0H06B_Tgws67LkEivO-18" value="" style="group" parent="1" vertex="1" connectable="0">
          <mxGeometry x="936" y="1220" width="339" height="912" as="geometry" />
        </mxCell>
        <mxCell id="5Q0H06B_Tgws67LkEivO-19" value="" style="rounded=0;whiteSpace=wrap;html=1;direction=south;" parent="5Q0H06B_Tgws67LkEivO-18" vertex="1">
          <mxGeometry width="339" height="57" as="geometry" />
        </mxCell>
        <mxCell id="5Q0H06B_Tgws67LkEivO-20" value="" style="rounded=0;whiteSpace=wrap;html=1;direction=south;" parent="5Q0H06B_Tgws67LkEivO-18" vertex="1">
          <mxGeometry y="57" width="339" height="57" as="geometry" />
        </mxCell>
        <mxCell id="5Q0H06B_Tgws67LkEivO-21" value="" style="rounded=0;whiteSpace=wrap;html=1;direction=south;" parent="5Q0H06B_Tgws67LkEivO-18" vertex="1">
          <mxGeometry y="114" width="339" height="57" as="geometry" />
        </mxCell>
        <mxCell id="5Q0H06B_Tgws67LkEivO-22" value="" style="rounded=0;whiteSpace=wrap;html=1;direction=south;" parent="5Q0H06B_Tgws67LkEivO-18" vertex="1">
          <mxGeometry y="171" width="339" height="57" as="geometry" />
        </mxCell>
        <mxCell id="5Q0H06B_Tgws67LkEivO-23" value="" style="rounded=0;whiteSpace=wrap;html=1;direction=south;" parent="5Q0H06B_Tgws67LkEivO-18" vertex="1">
          <mxGeometry y="228" width="339" height="57" as="geometry" />
        </mxCell>
        <mxCell id="5Q0H06B_Tgws67LkEivO-24" value="" style="rounded=0;whiteSpace=wrap;html=1;direction=south;" parent="5Q0H06B_Tgws67LkEivO-18" vertex="1">
          <mxGeometry y="285" width="339" height="57" as="geometry" />
        </mxCell>
        <mxCell id="5Q0H06B_Tgws67LkEivO-25" value="" style="rounded=0;whiteSpace=wrap;html=1;direction=south;" parent="5Q0H06B_Tgws67LkEivO-18" vertex="1">
          <mxGeometry y="342" width="339" height="57" as="geometry" />
        </mxCell>
        <mxCell id="5Q0H06B_Tgws67LkEivO-26" value="" style="rounded=0;whiteSpace=wrap;html=1;direction=south;" parent="5Q0H06B_Tgws67LkEivO-18" vertex="1">
          <mxGeometry y="399" width="339" height="57" as="geometry" />
        </mxCell>
        <mxCell id="5Q0H06B_Tgws67LkEivO-27" value="" style="rounded=0;whiteSpace=wrap;html=1;direction=south;" parent="5Q0H06B_Tgws67LkEivO-18" vertex="1">
          <mxGeometry y="456" width="339" height="57" as="geometry" />
        </mxCell>
        <mxCell id="5Q0H06B_Tgws67LkEivO-28" value="" style="rounded=0;whiteSpace=wrap;html=1;direction=south;" parent="5Q0H06B_Tgws67LkEivO-18" vertex="1">
          <mxGeometry y="513" width="339" height="57" as="geometry" />
        </mxCell>
        <mxCell id="5Q0H06B_Tgws67LkEivO-29" value="" style="rounded=0;whiteSpace=wrap;html=1;direction=south;" parent="5Q0H06B_Tgws67LkEivO-18" vertex="1">
          <mxGeometry y="570" width="339" height="57" as="geometry" />
        </mxCell>
        <mxCell id="5Q0H06B_Tgws67LkEivO-30" value="" style="rounded=0;whiteSpace=wrap;html=1;direction=south;" parent="5Q0H06B_Tgws67LkEivO-18" vertex="1">
          <mxGeometry y="627" width="339" height="57" as="geometry" />
        </mxCell>
        <mxCell id="5Q0H06B_Tgws67LkEivO-31" value="" style="rounded=0;whiteSpace=wrap;html=1;direction=south;" parent="5Q0H06B_Tgws67LkEivO-18" vertex="1">
          <mxGeometry y="684" width="339" height="57" as="geometry" />
        </mxCell>
        <mxCell id="5Q0H06B_Tgws67LkEivO-32" value="" style="rounded=0;whiteSpace=wrap;html=1;direction=south;" parent="5Q0H06B_Tgws67LkEivO-18" vertex="1">
          <mxGeometry y="741" width="339" height="57" as="geometry" />
        </mxCell>
        <mxCell id="5Q0H06B_Tgws67LkEivO-33" value="" style="rounded=0;whiteSpace=wrap;html=1;direction=south;" parent="5Q0H06B_Tgws67LkEivO-18" vertex="1">
          <mxGeometry y="798" width="339" height="57" as="geometry" />
        </mxCell>
        <mxCell id="5Q0H06B_Tgws67LkEivO-34" value="" style="rounded=0;whiteSpace=wrap;html=1;direction=south;" parent="5Q0H06B_Tgws67LkEivO-18" vertex="1">
          <mxGeometry y="855" width="339" height="57" as="geometry" />
        </mxCell>
        <mxCell id="5Q0H06B_Tgws67LkEivO-35" value="" style="group" parent="1" vertex="1" connectable="0">
          <mxGeometry x="460" y="180" width="339" height="912" as="geometry" />
        </mxCell>
        <mxCell id="5Q0H06B_Tgws67LkEivO-36" value="" style="rounded=0;whiteSpace=wrap;html=1;direction=south;" parent="5Q0H06B_Tgws67LkEivO-35" vertex="1">
          <mxGeometry width="339" height="57" as="geometry" />
        </mxCell>
        <mxCell id="5Q0H06B_Tgws67LkEivO-37" value="" style="rounded=0;whiteSpace=wrap;html=1;direction=south;" parent="5Q0H06B_Tgws67LkEivO-35" vertex="1">
          <mxGeometry y="57" width="339" height="57" as="geometry" />
        </mxCell>
        <mxCell id="5Q0H06B_Tgws67LkEivO-38" value="" style="rounded=0;whiteSpace=wrap;html=1;direction=south;" parent="5Q0H06B_Tgws67LkEivO-35" vertex="1">
          <mxGeometry y="114" width="339" height="57" as="geometry" />
        </mxCell>
        <mxCell id="5Q0H06B_Tgws67LkEivO-39" value="" style="rounded=0;whiteSpace=wrap;html=1;direction=south;" parent="5Q0H06B_Tgws67LkEivO-35" vertex="1">
          <mxGeometry y="171" width="339" height="57" as="geometry" />
        </mxCell>
        <mxCell id="5Q0H06B_Tgws67LkEivO-40" value="" style="rounded=0;whiteSpace=wrap;html=1;direction=south;" parent="5Q0H06B_Tgws67LkEivO-35" vertex="1">
          <mxGeometry y="228" width="339" height="57" as="geometry" />
        </mxCell>
        <mxCell id="5Q0H06B_Tgws67LkEivO-41" value="" style="rounded=0;whiteSpace=wrap;html=1;direction=south;" parent="5Q0H06B_Tgws67LkEivO-35" vertex="1">
          <mxGeometry y="285" width="339" height="57" as="geometry" />
        </mxCell>
        <mxCell id="5Q0H06B_Tgws67LkEivO-42" value="" style="rounded=0;whiteSpace=wrap;html=1;direction=south;" parent="5Q0H06B_Tgws67LkEivO-35" vertex="1">
          <mxGeometry y="342" width="339" height="57" as="geometry" />
        </mxCell>
        <mxCell id="5Q0H06B_Tgws67LkEivO-43" value="" style="rounded=0;whiteSpace=wrap;html=1;direction=south;" parent="5Q0H06B_Tgws67LkEivO-35" vertex="1">
          <mxGeometry y="399" width="339" height="57" as="geometry" />
        </mxCell>
        <mxCell id="5Q0H06B_Tgws67LkEivO-44" value="" style="rounded=0;whiteSpace=wrap;html=1;direction=south;" parent="5Q0H06B_Tgws67LkEivO-35" vertex="1">
          <mxGeometry y="456" width="339" height="57" as="geometry" />
        </mxCell>
        <mxCell id="5Q0H06B_Tgws67LkEivO-45" value="" style="rounded=0;whiteSpace=wrap;html=1;direction=south;" parent="5Q0H06B_Tgws67LkEivO-35" vertex="1">
          <mxGeometry y="513" width="339" height="57" as="geometry" />
        </mxCell>
        <mxCell id="5Q0H06B_Tgws67LkEivO-46" value="" style="rounded=0;whiteSpace=wrap;html=1;direction=south;" parent="5Q0H06B_Tgws67LkEivO-35" vertex="1">
          <mxGeometry y="570" width="339" height="57" as="geometry" />
        </mxCell>
        <mxCell id="5Q0H06B_Tgws67LkEivO-47" value="" style="rounded=0;whiteSpace=wrap;html=1;direction=south;" parent="5Q0H06B_Tgws67LkEivO-35" vertex="1">
          <mxGeometry y="627" width="339" height="57" as="geometry" />
        </mxCell>
        <mxCell id="5Q0H06B_Tgws67LkEivO-48" value="" style="rounded=0;whiteSpace=wrap;html=1;direction=south;" parent="5Q0H06B_Tgws67LkEivO-35" vertex="1">
          <mxGeometry y="684" width="339" height="57" as="geometry" />
        </mxCell>
        <mxCell id="5Q0H06B_Tgws67LkEivO-49" value="" style="rounded=0;whiteSpace=wrap;html=1;direction=south;" parent="5Q0H06B_Tgws67LkEivO-35" vertex="1">
          <mxGeometry y="741" width="339" height="57" as="geometry" />
        </mxCell>
        <mxCell id="5Q0H06B_Tgws67LkEivO-50" value="" style="rounded=0;whiteSpace=wrap;html=1;direction=south;" parent="5Q0H06B_Tgws67LkEivO-35" vertex="1">
          <mxGeometry y="798" width="339" height="57" as="geometry" />
        </mxCell>
        <mxCell id="5Q0H06B_Tgws67LkEivO-51" value="" style="rounded=0;whiteSpace=wrap;html=1;direction=south;" parent="5Q0H06B_Tgws67LkEivO-35" vertex="1">
          <mxGeometry y="855" width="339" height="57" as="geometry" />
        </mxCell>
        <mxCell id="5Q0H06B_Tgws67LkEivO-52" value="" style="group" parent="1" vertex="1" connectable="0">
          <mxGeometry x="460" y="1220" width="339" height="912" as="geometry" />
        </mxCell>
        <mxCell id="5Q0H06B_Tgws67LkEivO-53" value="" style="rounded=0;whiteSpace=wrap;html=1;direction=south;" parent="5Q0H06B_Tgws67LkEivO-52" vertex="1">
          <mxGeometry width="339" height="57" as="geometry" />
        </mxCell>
        <mxCell id="5Q0H06B_Tgws67LkEivO-54" value="" style="rounded=0;whiteSpace=wrap;html=1;direction=south;" parent="5Q0H06B_Tgws67LkEivO-52" vertex="1">
          <mxGeometry y="57" width="339" height="57" as="geometry" />
        </mxCell>
        <mxCell id="5Q0H06B_Tgws67LkEivO-55" value="" style="rounded=0;whiteSpace=wrap;html=1;direction=south;" parent="5Q0H06B_Tgws67LkEivO-52" vertex="1">
          <mxGeometry y="114" width="339" height="57" as="geometry" />
        </mxCell>
        <mxCell id="5Q0H06B_Tgws67LkEivO-56" value="" style="rounded=0;whiteSpace=wrap;html=1;direction=south;" parent="5Q0H06B_Tgws67LkEivO-52" vertex="1">
          <mxGeometry y="171" width="339" height="57" as="geometry" />
        </mxCell>
        <mxCell id="5Q0H06B_Tgws67LkEivO-57" value="" style="rounded=0;whiteSpace=wrap;html=1;direction=south;" parent="5Q0H06B_Tgws67LkEivO-52" vertex="1">
          <mxGeometry y="228" width="339" height="57" as="geometry" />
        </mxCell>
        <mxCell id="5Q0H06B_Tgws67LkEivO-58" value="" style="rounded=0;whiteSpace=wrap;html=1;direction=south;" parent="5Q0H06B_Tgws67LkEivO-52" vertex="1">
          <mxGeometry y="285" width="339" height="57" as="geometry" />
        </mxCell>
        <mxCell id="5Q0H06B_Tgws67LkEivO-59" value="" style="rounded=0;whiteSpace=wrap;html=1;direction=south;" parent="5Q0H06B_Tgws67LkEivO-52" vertex="1">
          <mxGeometry y="342" width="339" height="57" as="geometry" />
        </mxCell>
        <mxCell id="5Q0H06B_Tgws67LkEivO-60" value="" style="rounded=0;whiteSpace=wrap;html=1;direction=south;" parent="5Q0H06B_Tgws67LkEivO-52" vertex="1">
          <mxGeometry y="399" width="339" height="57" as="geometry" />
        </mxCell>
        <mxCell id="5Q0H06B_Tgws67LkEivO-61" value="" style="rounded=0;whiteSpace=wrap;html=1;direction=south;" parent="5Q0H06B_Tgws67LkEivO-52" vertex="1">
          <mxGeometry y="456" width="339" height="57" as="geometry" />
        </mxCell>
        <mxCell id="5Q0H06B_Tgws67LkEivO-62" value="" style="rounded=0;whiteSpace=wrap;html=1;direction=south;" parent="5Q0H06B_Tgws67LkEivO-52" vertex="1">
          <mxGeometry y="513" width="339" height="57" as="geometry" />
        </mxCell>
        <mxCell id="5Q0H06B_Tgws67LkEivO-63" value="" style="rounded=0;whiteSpace=wrap;html=1;direction=south;" parent="5Q0H06B_Tgws67LkEivO-52" vertex="1">
          <mxGeometry y="570" width="339" height="57" as="geometry" />
        </mxCell>
        <mxCell id="5Q0H06B_Tgws67LkEivO-64" value="" style="rounded=0;whiteSpace=wrap;html=1;direction=south;" parent="5Q0H06B_Tgws67LkEivO-52" vertex="1">
          <mxGeometry y="627" width="339" height="57" as="geometry" />
        </mxCell>
        <mxCell id="5Q0H06B_Tgws67LkEivO-65" value="" style="rounded=0;whiteSpace=wrap;html=1;direction=south;" parent="5Q0H06B_Tgws67LkEivO-52" vertex="1">
          <mxGeometry y="684" width="339" height="57" as="geometry" />
        </mxCell>
        <mxCell id="5Q0H06B_Tgws67LkEivO-66" value="" style="rounded=0;whiteSpace=wrap;html=1;direction=south;" parent="5Q0H06B_Tgws67LkEivO-52" vertex="1">
          <mxGeometry y="741" width="339" height="57" as="geometry" />
        </mxCell>
        <mxCell id="5Q0H06B_Tgws67LkEivO-67" value="" style="rounded=0;whiteSpace=wrap;html=1;direction=south;" parent="5Q0H06B_Tgws67LkEivO-52" vertex="1">
          <mxGeometry y="798" width="339" height="57" as="geometry" />
        </mxCell>
        <mxCell id="5Q0H06B_Tgws67LkEivO-68" value="" style="rounded=0;whiteSpace=wrap;html=1;direction=south;" parent="5Q0H06B_Tgws67LkEivO-52" vertex="1">
          <mxGeometry y="855" width="339" height="57" as="geometry" />
        </mxCell>
        <mxCell id="5Q0H06B_Tgws67LkEivO-69" value="" style="rounded=0;whiteSpace=wrap;html=1;direction=west;" parent="1" vertex="1">
          <mxGeometry x="1286.5" y="182" width="57" height="1950" as="geometry" />
        </mxCell>
        <mxCell id="5Q0H06B_Tgws67LkEivO-70" value="" style="rounded=0;whiteSpace=wrap;html=1;" parent="1" vertex="1">
          <mxGeometry x="1370" y="180" width="880" height="1870" as="geometry" />
        </mxCell>
        <mxCell id="5Q0H06B_Tgws67LkEivO-71" value="" style="rounded=0;whiteSpace=wrap;html=1;" parent="1" vertex="1">
          <mxGeometry x="700" y="2190" width="1300" height="890" as="geometry" />
        </mxCell>
        <mxCell id="5Q0H06B_Tgws67LkEivO-72" value="" style="rounded=0;whiteSpace=wrap;html=1;" parent="1" vertex="1">
          <mxGeometry x="1180" y="2140" width="310" height="200" as="geometry" />
        </mxCell>
        <mxCell id="5Q0H06B_Tgws67LkEivO-73" value="&lt;font style=&quot;font-size: 40px;&quot;&gt;lane&lt;/font&gt;" style="text;html=1;strokeColor=none;fillColor=none;align=center;verticalAlign=middle;whiteSpace=wrap;rounded=0;" parent="1" vertex="1">
          <mxGeometry x="1710" y="890" width="230" height="120" as="geometry" />
        </mxCell>
        <mxCell id="5Q0H06B_Tgws67LkEivO-74" value="&lt;font style=&quot;font-size: 40px;&quot;&gt;pll&lt;/font&gt;" style="text;html=1;strokeColor=none;fillColor=none;align=center;verticalAlign=middle;whiteSpace=wrap;rounded=0;" parent="1" vertex="1">
          <mxGeometry x="1220" y="2180" width="230" height="120" as="geometry" />
        </mxCell>
        <mxCell id="5Q0H06B_Tgws67LkEivO-75" value="&lt;font style=&quot;font-size: 40px;&quot;&gt;serdes&lt;/font&gt;" style="text;html=1;strokeColor=none;fillColor=none;align=center;verticalAlign=middle;whiteSpace=wrap;rounded=0;" parent="1" vertex="1">
          <mxGeometry x="1215" y="2680" width="230" height="120" as="geometry" />
        </mxCell>
        <mxCell id="5Q0H06B_Tgws67LkEivO-76" value="&lt;font style=&quot;font-size: 40px;&quot;&gt;l2 bank0&lt;/font&gt;" style="text;html=1;strokeColor=none;fillColor=none;align=center;verticalAlign=middle;whiteSpace=wrap;rounded=0;rotation=270;" parent="1" vertex="1">
          <mxGeometry x="750" y="540" width="230" height="120" as="geometry" />
        </mxCell>
        <mxCell id="5Q0H06B_Tgws67LkEivO-77" value="&lt;font style=&quot;font-size: 40px;&quot;&gt;l2 bank1&lt;/font&gt;" style="text;html=1;strokeColor=none;fillColor=none;align=center;verticalAlign=middle;whiteSpace=wrap;rounded=0;rotation=270;" parent="1" vertex="1">
          <mxGeometry x="750" y="1630" width="230" height="120" as="geometry" />
        </mxCell>
        <mxCell id="5Q0H06B_Tgws67LkEivO-78" value="&lt;font style=&quot;font-size: 40px;&quot;&gt;lsu&lt;/font&gt;" style="text;html=1;strokeColor=none;fillColor=none;align=center;verticalAlign=middle;whiteSpace=wrap;rounded=0;rotation=270;" parent="1" vertex="1">
          <mxGeometry x="1200" y="1110" width="230" height="120" as="geometry" />
        </mxCell>
        <mxCell id="22qp1sFz714ISWL3_Ce8-1" style="edgeStyle=orthogonalEdgeStyle;rounded=0;orthogonalLoop=1;jettySize=auto;html=1;exitX=0.75;exitY=0;exitDx=0;exitDy=0;entryX=0.837;entryY=-0.025;entryDx=0;entryDy=0;entryPerimeter=0;" parent="1" source="5Q0H06B_Tgws67LkEivO-75" target="5Q0H06B_Tgws67LkEivO-75" edge="1">
          <mxGeometry relative="1" as="geometry" />
        </mxCell>
      </root>
    </mxGraphModel>
  </diagram>
  <diagram name="4*1.5" id="sgDmjksvcwZ-7Wzvj-Ef">
    <mxGraphModel dx="2954" dy="1136" grid="1" gridSize="10" guides="1" tooltips="1" connect="1" arrows="1" fold="1" page="1" pageScale="1" pageWidth="850" pageHeight="1100" math="0" shadow="0">
      <root>
        <mxCell id="Fd_m323YIO4nI8VAkQwT-0" />
        <mxCell id="Fd_m323YIO4nI8VAkQwT-1" parent="Fd_m323YIO4nI8VAkQwT-0" />
        <mxCell id="Fd_m323YIO4nI8VAkQwT-2" value="" style="rounded=0;whiteSpace=wrap;html=1;" parent="Fd_m323YIO4nI8VAkQwT-1" vertex="1">
          <mxGeometry x="360" y="80" width="1500" height="4000" as="geometry" />
        </mxCell>
        <mxCell id="Fd_m323YIO4nI8VAkQwT-3" value="" style="rounded=0;whiteSpace=wrap;html=1;direction=south;fillColor=#f5f5f5;fontColor=#333333;strokeColor=#666666;" parent="Fd_m323YIO4nI8VAkQwT-1" vertex="1">
          <mxGeometry x="360" y="82" width="100" height="4000" as="geometry" />
        </mxCell>
        <mxCell id="Fd_m323YIO4nI8VAkQwT-4" value="" style="rounded=0;whiteSpace=wrap;html=1;fillColor=#f5f5f5;fontColor=#333333;strokeColor=#666666;" parent="Fd_m323YIO4nI8VAkQwT-1" vertex="1">
          <mxGeometry x="360" y="82" width="1500" height="100" as="geometry" />
        </mxCell>
        <mxCell id="Fd_m323YIO4nI8VAkQwT-5" value="" style="rounded=0;whiteSpace=wrap;html=1;direction=south;fillColor=#f5f5f5;fontColor=#333333;strokeColor=#666666;" parent="Fd_m323YIO4nI8VAkQwT-1" vertex="1">
          <mxGeometry x="1760" y="82" width="100" height="4000" as="geometry" />
        </mxCell>
        <mxCell id="Fd_m323YIO4nI8VAkQwT-76" value="" style="rounded=0;whiteSpace=wrap;html=1;" parent="Fd_m323YIO4nI8VAkQwT-1" vertex="1">
          <mxGeometry x="460" y="3190" width="1300" height="890" as="geometry" />
        </mxCell>
        <mxCell id="Fd_m323YIO4nI8VAkQwT-77" value="" style="rounded=0;whiteSpace=wrap;html=1;" parent="Fd_m323YIO4nI8VAkQwT-1" vertex="1">
          <mxGeometry x="965" y="3190" width="310" height="200" as="geometry" />
        </mxCell>
        <mxCell id="Fd_m323YIO4nI8VAkQwT-79" value="&lt;font style=&quot;font-size: 40px;&quot;&gt;pll&lt;/font&gt;" style="text;html=1;strokeColor=none;fillColor=none;align=center;verticalAlign=middle;whiteSpace=wrap;rounded=0;" parent="Fd_m323YIO4nI8VAkQwT-1" vertex="1">
          <mxGeometry x="995" y="3230" width="230" height="120" as="geometry" />
        </mxCell>
        <mxCell id="Fd_m323YIO4nI8VAkQwT-80" value="&lt;font style=&quot;font-size: 40px;&quot;&gt;serdes&lt;/font&gt;" style="text;html=1;strokeColor=none;fillColor=none;align=center;verticalAlign=middle;whiteSpace=wrap;rounded=0;" parent="Fd_m323YIO4nI8VAkQwT-1" vertex="1">
          <mxGeometry x="995" y="3570" width="230" height="120" as="geometry" />
        </mxCell>
        <mxCell id="yD0MJmRRE8yGqpeuUl-a-202" value="e" style="group" parent="Fd_m323YIO4nI8VAkQwT-1" vertex="1" connectable="0">
          <mxGeometry x="470" y="190" width="339" height="1822" as="geometry" />
        </mxCell>
        <mxCell id="tioMYu1MsDLc0GEQ_E89-2" value="" style="group" parent="yD0MJmRRE8yGqpeuUl-a-202" vertex="1" connectable="0">
          <mxGeometry width="339" height="912" as="geometry" />
        </mxCell>
        <mxCell id="Fd_m323YIO4nI8VAkQwT-7" value="" style="rounded=0;whiteSpace=wrap;html=1;direction=south;" parent="tioMYu1MsDLc0GEQ_E89-2" vertex="1">
          <mxGeometry width="339" height="57" as="geometry" />
        </mxCell>
        <mxCell id="Fd_m323YIO4nI8VAkQwT-8" value="" style="rounded=0;whiteSpace=wrap;html=1;direction=south;" parent="tioMYu1MsDLc0GEQ_E89-2" vertex="1">
          <mxGeometry y="57" width="339" height="57" as="geometry" />
        </mxCell>
        <mxCell id="Fd_m323YIO4nI8VAkQwT-9" value="" style="rounded=0;whiteSpace=wrap;html=1;direction=south;" parent="tioMYu1MsDLc0GEQ_E89-2" vertex="1">
          <mxGeometry y="114" width="339" height="57" as="geometry" />
        </mxCell>
        <mxCell id="Fd_m323YIO4nI8VAkQwT-10" value="" style="rounded=0;whiteSpace=wrap;html=1;direction=south;" parent="tioMYu1MsDLc0GEQ_E89-2" vertex="1">
          <mxGeometry y="171" width="339" height="57" as="geometry" />
        </mxCell>
        <mxCell id="Fd_m323YIO4nI8VAkQwT-11" value="" style="rounded=0;whiteSpace=wrap;html=1;direction=south;" parent="tioMYu1MsDLc0GEQ_E89-2" vertex="1">
          <mxGeometry y="228" width="339" height="57" as="geometry" />
        </mxCell>
        <mxCell id="Fd_m323YIO4nI8VAkQwT-12" value="" style="rounded=0;whiteSpace=wrap;html=1;direction=south;" parent="tioMYu1MsDLc0GEQ_E89-2" vertex="1">
          <mxGeometry y="285" width="339" height="57" as="geometry" />
        </mxCell>
        <mxCell id="Fd_m323YIO4nI8VAkQwT-13" value="" style="rounded=0;whiteSpace=wrap;html=1;direction=south;" parent="tioMYu1MsDLc0GEQ_E89-2" vertex="1">
          <mxGeometry y="342" width="339" height="57" as="geometry" />
        </mxCell>
        <mxCell id="Fd_m323YIO4nI8VAkQwT-14" value="" style="rounded=0;whiteSpace=wrap;html=1;direction=south;" parent="tioMYu1MsDLc0GEQ_E89-2" vertex="1">
          <mxGeometry y="399" width="339" height="57" as="geometry" />
        </mxCell>
        <mxCell id="Fd_m323YIO4nI8VAkQwT-15" value="" style="rounded=0;whiteSpace=wrap;html=1;direction=south;" parent="tioMYu1MsDLc0GEQ_E89-2" vertex="1">
          <mxGeometry y="456" width="339" height="57" as="geometry" />
        </mxCell>
        <mxCell id="Fd_m323YIO4nI8VAkQwT-16" value="" style="rounded=0;whiteSpace=wrap;html=1;direction=south;" parent="tioMYu1MsDLc0GEQ_E89-2" vertex="1">
          <mxGeometry y="513" width="339" height="57" as="geometry" />
        </mxCell>
        <mxCell id="Fd_m323YIO4nI8VAkQwT-17" value="" style="rounded=0;whiteSpace=wrap;html=1;direction=south;" parent="tioMYu1MsDLc0GEQ_E89-2" vertex="1">
          <mxGeometry y="570" width="339" height="57" as="geometry" />
        </mxCell>
        <mxCell id="Fd_m323YIO4nI8VAkQwT-18" value="" style="rounded=0;whiteSpace=wrap;html=1;direction=south;" parent="tioMYu1MsDLc0GEQ_E89-2" vertex="1">
          <mxGeometry y="627" width="339" height="57" as="geometry" />
        </mxCell>
        <mxCell id="Fd_m323YIO4nI8VAkQwT-19" value="" style="rounded=0;whiteSpace=wrap;html=1;direction=south;" parent="tioMYu1MsDLc0GEQ_E89-2" vertex="1">
          <mxGeometry y="684" width="339" height="57" as="geometry" />
        </mxCell>
        <mxCell id="Fd_m323YIO4nI8VAkQwT-20" value="" style="rounded=0;whiteSpace=wrap;html=1;direction=south;" parent="tioMYu1MsDLc0GEQ_E89-2" vertex="1">
          <mxGeometry y="741" width="339" height="57" as="geometry" />
        </mxCell>
        <mxCell id="Fd_m323YIO4nI8VAkQwT-21" value="" style="rounded=0;whiteSpace=wrap;html=1;direction=south;" parent="tioMYu1MsDLc0GEQ_E89-2" vertex="1">
          <mxGeometry y="798" width="339" height="57" as="geometry" />
        </mxCell>
        <mxCell id="Fd_m323YIO4nI8VAkQwT-22" value="" style="rounded=0;whiteSpace=wrap;html=1;direction=south;" parent="tioMYu1MsDLc0GEQ_E89-2" vertex="1">
          <mxGeometry y="855" width="339" height="57" as="geometry" />
        </mxCell>
        <mxCell id="yD0MJmRRE8yGqpeuUl-a-151" value="" style="group" parent="yD0MJmRRE8yGqpeuUl-a-202" vertex="1" connectable="0">
          <mxGeometry y="910" width="339" height="912" as="geometry" />
        </mxCell>
        <mxCell id="yD0MJmRRE8yGqpeuUl-a-152" value="" style="rounded=0;whiteSpace=wrap;html=1;direction=south;" parent="yD0MJmRRE8yGqpeuUl-a-151" vertex="1">
          <mxGeometry width="339" height="57" as="geometry" />
        </mxCell>
        <mxCell id="yD0MJmRRE8yGqpeuUl-a-153" value="" style="rounded=0;whiteSpace=wrap;html=1;direction=south;" parent="yD0MJmRRE8yGqpeuUl-a-151" vertex="1">
          <mxGeometry y="57" width="339" height="57" as="geometry" />
        </mxCell>
        <mxCell id="yD0MJmRRE8yGqpeuUl-a-154" value="" style="rounded=0;whiteSpace=wrap;html=1;direction=south;" parent="yD0MJmRRE8yGqpeuUl-a-151" vertex="1">
          <mxGeometry y="114" width="339" height="57" as="geometry" />
        </mxCell>
        <mxCell id="yD0MJmRRE8yGqpeuUl-a-155" value="" style="rounded=0;whiteSpace=wrap;html=1;direction=south;" parent="yD0MJmRRE8yGqpeuUl-a-151" vertex="1">
          <mxGeometry y="171" width="339" height="57" as="geometry" />
        </mxCell>
        <mxCell id="yD0MJmRRE8yGqpeuUl-a-156" value="" style="rounded=0;whiteSpace=wrap;html=1;direction=south;" parent="yD0MJmRRE8yGqpeuUl-a-151" vertex="1">
          <mxGeometry y="228" width="339" height="57" as="geometry" />
        </mxCell>
        <mxCell id="yD0MJmRRE8yGqpeuUl-a-157" value="" style="rounded=0;whiteSpace=wrap;html=1;direction=south;" parent="yD0MJmRRE8yGqpeuUl-a-151" vertex="1">
          <mxGeometry y="285" width="339" height="57" as="geometry" />
        </mxCell>
        <mxCell id="yD0MJmRRE8yGqpeuUl-a-158" value="" style="rounded=0;whiteSpace=wrap;html=1;direction=south;" parent="yD0MJmRRE8yGqpeuUl-a-151" vertex="1">
          <mxGeometry y="342" width="339" height="57" as="geometry" />
        </mxCell>
        <mxCell id="yD0MJmRRE8yGqpeuUl-a-159" value="" style="rounded=0;whiteSpace=wrap;html=1;direction=south;" parent="yD0MJmRRE8yGqpeuUl-a-151" vertex="1">
          <mxGeometry y="399" width="339" height="57" as="geometry" />
        </mxCell>
        <mxCell id="yD0MJmRRE8yGqpeuUl-a-160" value="" style="rounded=0;whiteSpace=wrap;html=1;direction=south;" parent="yD0MJmRRE8yGqpeuUl-a-151" vertex="1">
          <mxGeometry y="456" width="339" height="57" as="geometry" />
        </mxCell>
        <mxCell id="yD0MJmRRE8yGqpeuUl-a-161" value="" style="rounded=0;whiteSpace=wrap;html=1;direction=south;" parent="yD0MJmRRE8yGqpeuUl-a-151" vertex="1">
          <mxGeometry y="513" width="339" height="57" as="geometry" />
        </mxCell>
        <mxCell id="yD0MJmRRE8yGqpeuUl-a-162" value="" style="rounded=0;whiteSpace=wrap;html=1;direction=south;" parent="yD0MJmRRE8yGqpeuUl-a-151" vertex="1">
          <mxGeometry y="570" width="339" height="57" as="geometry" />
        </mxCell>
        <mxCell id="yD0MJmRRE8yGqpeuUl-a-163" value="" style="rounded=0;whiteSpace=wrap;html=1;direction=south;" parent="yD0MJmRRE8yGqpeuUl-a-151" vertex="1">
          <mxGeometry y="627" width="339" height="57" as="geometry" />
        </mxCell>
        <mxCell id="yD0MJmRRE8yGqpeuUl-a-164" value="" style="rounded=0;whiteSpace=wrap;html=1;direction=south;" parent="yD0MJmRRE8yGqpeuUl-a-151" vertex="1">
          <mxGeometry y="684" width="339" height="57" as="geometry" />
        </mxCell>
        <mxCell id="yD0MJmRRE8yGqpeuUl-a-165" value="" style="rounded=0;whiteSpace=wrap;html=1;direction=south;" parent="yD0MJmRRE8yGqpeuUl-a-151" vertex="1">
          <mxGeometry y="741" width="339" height="57" as="geometry" />
        </mxCell>
        <mxCell id="yD0MJmRRE8yGqpeuUl-a-166" value="" style="rounded=0;whiteSpace=wrap;html=1;direction=south;" parent="yD0MJmRRE8yGqpeuUl-a-151" vertex="1">
          <mxGeometry y="798" width="339" height="57" as="geometry" />
        </mxCell>
        <mxCell id="yD0MJmRRE8yGqpeuUl-a-167" value="" style="rounded=0;whiteSpace=wrap;html=1;direction=south;" parent="yD0MJmRRE8yGqpeuUl-a-151" vertex="1">
          <mxGeometry y="855" width="339" height="57" as="geometry" />
        </mxCell>
        <mxCell id="yD0MJmRRE8yGqpeuUl-a-203" value="" style="group" parent="Fd_m323YIO4nI8VAkQwT-1" vertex="1" connectable="0">
          <mxGeometry x="1410" y="190" width="339" height="1822" as="geometry" />
        </mxCell>
        <mxCell id="yD0MJmRRE8yGqpeuUl-a-168" value="" style="group" parent="yD0MJmRRE8yGqpeuUl-a-203" vertex="1" connectable="0">
          <mxGeometry width="339" height="912" as="geometry" />
        </mxCell>
        <mxCell id="yD0MJmRRE8yGqpeuUl-a-169" value="" style="rounded=0;whiteSpace=wrap;html=1;direction=south;" parent="yD0MJmRRE8yGqpeuUl-a-168" vertex="1">
          <mxGeometry width="339" height="57" as="geometry" />
        </mxCell>
        <mxCell id="yD0MJmRRE8yGqpeuUl-a-170" value="" style="rounded=0;whiteSpace=wrap;html=1;direction=south;" parent="yD0MJmRRE8yGqpeuUl-a-168" vertex="1">
          <mxGeometry y="57" width="339" height="57" as="geometry" />
        </mxCell>
        <mxCell id="yD0MJmRRE8yGqpeuUl-a-171" value="" style="rounded=0;whiteSpace=wrap;html=1;direction=south;" parent="yD0MJmRRE8yGqpeuUl-a-168" vertex="1">
          <mxGeometry y="114" width="339" height="57" as="geometry" />
        </mxCell>
        <mxCell id="yD0MJmRRE8yGqpeuUl-a-172" value="" style="rounded=0;whiteSpace=wrap;html=1;direction=south;" parent="yD0MJmRRE8yGqpeuUl-a-168" vertex="1">
          <mxGeometry y="171" width="339" height="57" as="geometry" />
        </mxCell>
        <mxCell id="yD0MJmRRE8yGqpeuUl-a-173" value="" style="rounded=0;whiteSpace=wrap;html=1;direction=south;" parent="yD0MJmRRE8yGqpeuUl-a-168" vertex="1">
          <mxGeometry y="228" width="339" height="57" as="geometry" />
        </mxCell>
        <mxCell id="yD0MJmRRE8yGqpeuUl-a-174" value="" style="rounded=0;whiteSpace=wrap;html=1;direction=south;" parent="yD0MJmRRE8yGqpeuUl-a-168" vertex="1">
          <mxGeometry y="285" width="339" height="57" as="geometry" />
        </mxCell>
        <mxCell id="yD0MJmRRE8yGqpeuUl-a-175" value="" style="rounded=0;whiteSpace=wrap;html=1;direction=south;" parent="yD0MJmRRE8yGqpeuUl-a-168" vertex="1">
          <mxGeometry y="342" width="339" height="57" as="geometry" />
        </mxCell>
        <mxCell id="yD0MJmRRE8yGqpeuUl-a-176" value="" style="rounded=0;whiteSpace=wrap;html=1;direction=south;" parent="yD0MJmRRE8yGqpeuUl-a-168" vertex="1">
          <mxGeometry y="399" width="339" height="57" as="geometry" />
        </mxCell>
        <mxCell id="yD0MJmRRE8yGqpeuUl-a-177" value="" style="rounded=0;whiteSpace=wrap;html=1;direction=south;" parent="yD0MJmRRE8yGqpeuUl-a-168" vertex="1">
          <mxGeometry y="456" width="339" height="57" as="geometry" />
        </mxCell>
        <mxCell id="yD0MJmRRE8yGqpeuUl-a-178" value="" style="rounded=0;whiteSpace=wrap;html=1;direction=south;" parent="yD0MJmRRE8yGqpeuUl-a-168" vertex="1">
          <mxGeometry y="513" width="339" height="57" as="geometry" />
        </mxCell>
        <mxCell id="yD0MJmRRE8yGqpeuUl-a-179" value="" style="rounded=0;whiteSpace=wrap;html=1;direction=south;" parent="yD0MJmRRE8yGqpeuUl-a-168" vertex="1">
          <mxGeometry y="570" width="339" height="57" as="geometry" />
        </mxCell>
        <mxCell id="yD0MJmRRE8yGqpeuUl-a-180" value="" style="rounded=0;whiteSpace=wrap;html=1;direction=south;" parent="yD0MJmRRE8yGqpeuUl-a-168" vertex="1">
          <mxGeometry y="627" width="339" height="57" as="geometry" />
        </mxCell>
        <mxCell id="yD0MJmRRE8yGqpeuUl-a-181" value="" style="rounded=0;whiteSpace=wrap;html=1;direction=south;" parent="yD0MJmRRE8yGqpeuUl-a-168" vertex="1">
          <mxGeometry y="684" width="339" height="57" as="geometry" />
        </mxCell>
        <mxCell id="yD0MJmRRE8yGqpeuUl-a-182" value="" style="rounded=0;whiteSpace=wrap;html=1;direction=south;" parent="yD0MJmRRE8yGqpeuUl-a-168" vertex="1">
          <mxGeometry y="741" width="339" height="57" as="geometry" />
        </mxCell>
        <mxCell id="yD0MJmRRE8yGqpeuUl-a-183" value="" style="rounded=0;whiteSpace=wrap;html=1;direction=south;" parent="yD0MJmRRE8yGqpeuUl-a-168" vertex="1">
          <mxGeometry y="798" width="339" height="57" as="geometry" />
        </mxCell>
        <mxCell id="yD0MJmRRE8yGqpeuUl-a-184" value="" style="rounded=0;whiteSpace=wrap;html=1;direction=south;" parent="yD0MJmRRE8yGqpeuUl-a-168" vertex="1">
          <mxGeometry y="855" width="339" height="57" as="geometry" />
        </mxCell>
        <mxCell id="yD0MJmRRE8yGqpeuUl-a-185" value="" style="group" parent="yD0MJmRRE8yGqpeuUl-a-203" vertex="1" connectable="0">
          <mxGeometry y="910" width="339" height="912" as="geometry" />
        </mxCell>
        <mxCell id="yD0MJmRRE8yGqpeuUl-a-186" value="" style="rounded=0;whiteSpace=wrap;html=1;direction=south;" parent="yD0MJmRRE8yGqpeuUl-a-185" vertex="1">
          <mxGeometry width="339" height="57" as="geometry" />
        </mxCell>
        <mxCell id="yD0MJmRRE8yGqpeuUl-a-187" value="" style="rounded=0;whiteSpace=wrap;html=1;direction=south;" parent="yD0MJmRRE8yGqpeuUl-a-185" vertex="1">
          <mxGeometry y="57" width="339" height="57" as="geometry" />
        </mxCell>
        <mxCell id="yD0MJmRRE8yGqpeuUl-a-188" value="" style="rounded=0;whiteSpace=wrap;html=1;direction=south;" parent="yD0MJmRRE8yGqpeuUl-a-185" vertex="1">
          <mxGeometry y="114" width="339" height="57" as="geometry" />
        </mxCell>
        <mxCell id="yD0MJmRRE8yGqpeuUl-a-189" value="" style="rounded=0;whiteSpace=wrap;html=1;direction=south;" parent="yD0MJmRRE8yGqpeuUl-a-185" vertex="1">
          <mxGeometry y="171" width="339" height="57" as="geometry" />
        </mxCell>
        <mxCell id="yD0MJmRRE8yGqpeuUl-a-190" value="" style="rounded=0;whiteSpace=wrap;html=1;direction=south;" parent="yD0MJmRRE8yGqpeuUl-a-185" vertex="1">
          <mxGeometry y="228" width="339" height="57" as="geometry" />
        </mxCell>
        <mxCell id="yD0MJmRRE8yGqpeuUl-a-191" value="" style="rounded=0;whiteSpace=wrap;html=1;direction=south;" parent="yD0MJmRRE8yGqpeuUl-a-185" vertex="1">
          <mxGeometry y="285" width="339" height="57" as="geometry" />
        </mxCell>
        <mxCell id="yD0MJmRRE8yGqpeuUl-a-192" value="" style="rounded=0;whiteSpace=wrap;html=1;direction=south;" parent="yD0MJmRRE8yGqpeuUl-a-185" vertex="1">
          <mxGeometry y="342" width="339" height="57" as="geometry" />
        </mxCell>
        <mxCell id="yD0MJmRRE8yGqpeuUl-a-193" value="" style="rounded=0;whiteSpace=wrap;html=1;direction=south;" parent="yD0MJmRRE8yGqpeuUl-a-185" vertex="1">
          <mxGeometry y="399" width="339" height="57" as="geometry" />
        </mxCell>
        <mxCell id="yD0MJmRRE8yGqpeuUl-a-194" value="" style="rounded=0;whiteSpace=wrap;html=1;direction=south;" parent="yD0MJmRRE8yGqpeuUl-a-185" vertex="1">
          <mxGeometry y="456" width="339" height="57" as="geometry" />
        </mxCell>
        <mxCell id="yD0MJmRRE8yGqpeuUl-a-195" value="" style="rounded=0;whiteSpace=wrap;html=1;direction=south;" parent="yD0MJmRRE8yGqpeuUl-a-185" vertex="1">
          <mxGeometry y="513" width="339" height="57" as="geometry" />
        </mxCell>
        <mxCell id="yD0MJmRRE8yGqpeuUl-a-196" value="" style="rounded=0;whiteSpace=wrap;html=1;direction=south;" parent="yD0MJmRRE8yGqpeuUl-a-185" vertex="1">
          <mxGeometry y="570" width="339" height="57" as="geometry" />
        </mxCell>
        <mxCell id="yD0MJmRRE8yGqpeuUl-a-197" value="" style="rounded=0;whiteSpace=wrap;html=1;direction=south;" parent="yD0MJmRRE8yGqpeuUl-a-185" vertex="1">
          <mxGeometry y="627" width="339" height="57" as="geometry" />
        </mxCell>
        <mxCell id="yD0MJmRRE8yGqpeuUl-a-198" value="" style="rounded=0;whiteSpace=wrap;html=1;direction=south;" parent="yD0MJmRRE8yGqpeuUl-a-185" vertex="1">
          <mxGeometry y="684" width="339" height="57" as="geometry" />
        </mxCell>
        <mxCell id="yD0MJmRRE8yGqpeuUl-a-199" value="" style="rounded=0;whiteSpace=wrap;html=1;direction=south;" parent="yD0MJmRRE8yGqpeuUl-a-185" vertex="1">
          <mxGeometry y="741" width="339" height="57" as="geometry" />
        </mxCell>
        <mxCell id="yD0MJmRRE8yGqpeuUl-a-200" value="" style="rounded=0;whiteSpace=wrap;html=1;direction=south;" parent="yD0MJmRRE8yGqpeuUl-a-185" vertex="1">
          <mxGeometry y="798" width="339" height="57" as="geometry" />
        </mxCell>
        <mxCell id="yD0MJmRRE8yGqpeuUl-a-201" value="" style="rounded=0;whiteSpace=wrap;html=1;direction=south;" parent="yD0MJmRRE8yGqpeuUl-a-185" vertex="1">
          <mxGeometry y="855" width="339" height="57" as="geometry" />
        </mxCell>
        <mxCell id="yD0MJmRRE8yGqpeuUl-a-205" value="" style="group" parent="Fd_m323YIO4nI8VAkQwT-1" vertex="1" connectable="0">
          <mxGeometry x="820" y="182" width="580" height="1790" as="geometry" />
        </mxCell>
        <mxCell id="yD0MJmRRE8yGqpeuUl-a-0" value="" style="rounded=1;whiteSpace=wrap;html=1;" parent="yD0MJmRRE8yGqpeuUl-a-205" vertex="1">
          <mxGeometry y="107.99775193798449" width="217.5" height="194.26356589147287" as="geometry" />
        </mxCell>
        <mxCell id="yD0MJmRRE8yGqpeuUl-a-1" value="" style="rounded=1;whiteSpace=wrap;html=1;" parent="yD0MJmRRE8yGqpeuUl-a-205" vertex="1">
          <mxGeometry y="305.27131782945736" width="217.5" height="194.26356589147287" as="geometry" />
        </mxCell>
        <mxCell id="yD0MJmRRE8yGqpeuUl-a-18" style="edgeStyle=orthogonalEdgeStyle;rounded=0;orthogonalLoop=1;jettySize=auto;html=1;exitX=0.5;exitY=1;exitDx=0;exitDy=0;entryX=0.5;entryY=0;entryDx=0;entryDy=0;" parent="yD0MJmRRE8yGqpeuUl-a-205" source="yD0MJmRRE8yGqpeuUl-a-0" target="yD0MJmRRE8yGqpeuUl-a-1" edge="1">
          <mxGeometry relative="1" as="geometry" />
        </mxCell>
        <mxCell id="yD0MJmRRE8yGqpeuUl-a-2" value="" style="rounded=1;whiteSpace=wrap;html=1;" parent="yD0MJmRRE8yGqpeuUl-a-205" vertex="1">
          <mxGeometry y="499.5348837209302" width="217.5" height="194.26356589147287" as="geometry" />
        </mxCell>
        <mxCell id="yD0MJmRRE8yGqpeuUl-a-19" style="edgeStyle=orthogonalEdgeStyle;rounded=0;orthogonalLoop=1;jettySize=auto;html=1;exitX=0.5;exitY=1;exitDx=0;exitDy=0;entryX=0.5;entryY=0;entryDx=0;entryDy=0;" parent="yD0MJmRRE8yGqpeuUl-a-205" source="yD0MJmRRE8yGqpeuUl-a-1" target="yD0MJmRRE8yGqpeuUl-a-2" edge="1">
          <mxGeometry relative="1" as="geometry" />
        </mxCell>
        <mxCell id="yD0MJmRRE8yGqpeuUl-a-21" style="edgeStyle=orthogonalEdgeStyle;rounded=0;orthogonalLoop=1;jettySize=auto;html=1;exitX=0.5;exitY=1;exitDx=0;exitDy=0;" parent="yD0MJmRRE8yGqpeuUl-a-205" source="yD0MJmRRE8yGqpeuUl-a-3" edge="1">
          <mxGeometry relative="1" as="geometry">
            <mxPoint x="108.75" y="957.4418604651163" as="targetPoint" />
          </mxGeometry>
        </mxCell>
        <mxCell id="yD0MJmRRE8yGqpeuUl-a-3" value="" style="rounded=1;whiteSpace=wrap;html=1;" parent="yD0MJmRRE8yGqpeuUl-a-205" vertex="1">
          <mxGeometry y="693.7984496124031" width="217.5" height="194.26356589147287" as="geometry" />
        </mxCell>
        <mxCell id="yD0MJmRRE8yGqpeuUl-a-20" style="edgeStyle=orthogonalEdgeStyle;rounded=0;orthogonalLoop=1;jettySize=auto;html=1;exitX=0.5;exitY=1;exitDx=0;exitDy=0;entryX=0.5;entryY=0;entryDx=0;entryDy=0;" parent="yD0MJmRRE8yGqpeuUl-a-205" source="yD0MJmRRE8yGqpeuUl-a-2" target="yD0MJmRRE8yGqpeuUl-a-3" edge="1">
          <mxGeometry relative="1" as="geometry" />
        </mxCell>
        <mxCell id="yD0MJmRRE8yGqpeuUl-a-4" value="" style="rounded=1;whiteSpace=wrap;html=1;" parent="yD0MJmRRE8yGqpeuUl-a-205" vertex="1">
          <mxGeometry y="888.062015503876" width="217.5" height="194.26356589147287" as="geometry" />
        </mxCell>
        <mxCell id="yD0MJmRRE8yGqpeuUl-a-5" value="" style="rounded=1;whiteSpace=wrap;html=1;" parent="yD0MJmRRE8yGqpeuUl-a-205" vertex="1">
          <mxGeometry y="1082.3255813953488" width="217.5" height="194.26356589147287" as="geometry" />
        </mxCell>
        <mxCell id="yD0MJmRRE8yGqpeuUl-a-22" style="edgeStyle=orthogonalEdgeStyle;rounded=0;orthogonalLoop=1;jettySize=auto;html=1;exitX=0.5;exitY=1;exitDx=0;exitDy=0;" parent="yD0MJmRRE8yGqpeuUl-a-205" source="yD0MJmRRE8yGqpeuUl-a-4" target="yD0MJmRRE8yGqpeuUl-a-5" edge="1">
          <mxGeometry relative="1" as="geometry" />
        </mxCell>
        <mxCell id="yD0MJmRRE8yGqpeuUl-a-6" value="" style="rounded=1;whiteSpace=wrap;html=1;" parent="yD0MJmRRE8yGqpeuUl-a-205" vertex="1">
          <mxGeometry y="1276.5891472868218" width="217.5" height="194.26356589147287" as="geometry" />
        </mxCell>
        <mxCell id="yD0MJmRRE8yGqpeuUl-a-23" style="edgeStyle=orthogonalEdgeStyle;rounded=0;orthogonalLoop=1;jettySize=auto;html=1;exitX=0.5;exitY=1;exitDx=0;exitDy=0;" parent="yD0MJmRRE8yGqpeuUl-a-205" source="yD0MJmRRE8yGqpeuUl-a-5" target="yD0MJmRRE8yGqpeuUl-a-6" edge="1">
          <mxGeometry relative="1" as="geometry" />
        </mxCell>
        <mxCell id="yD0MJmRRE8yGqpeuUl-a-209" style="edgeStyle=orthogonalEdgeStyle;rounded=0;orthogonalLoop=1;jettySize=auto;html=1;exitX=0.5;exitY=1;exitDx=0;exitDy=0;entryX=0.5;entryY=1;entryDx=0;entryDy=0;" parent="yD0MJmRRE8yGqpeuUl-a-205" source="yD0MJmRRE8yGqpeuUl-a-7" target="yD0MJmRRE8yGqpeuUl-a-15" edge="1">
          <mxGeometry relative="1" as="geometry" />
        </mxCell>
        <mxCell id="yD0MJmRRE8yGqpeuUl-a-7" value="" style="rounded=1;whiteSpace=wrap;html=1;" parent="yD0MJmRRE8yGqpeuUl-a-205" vertex="1">
          <mxGeometry y="1470.8527131782946" width="217.5" height="194.26356589147287" as="geometry" />
        </mxCell>
        <mxCell id="yD0MJmRRE8yGqpeuUl-a-24" style="edgeStyle=orthogonalEdgeStyle;rounded=0;orthogonalLoop=1;jettySize=auto;html=1;exitX=0.5;exitY=1;exitDx=0;exitDy=0;entryX=0.5;entryY=0;entryDx=0;entryDy=0;" parent="yD0MJmRRE8yGqpeuUl-a-205" source="yD0MJmRRE8yGqpeuUl-a-6" target="yD0MJmRRE8yGqpeuUl-a-7" edge="1">
          <mxGeometry relative="1" as="geometry" />
        </mxCell>
        <mxCell id="yD0MJmRRE8yGqpeuUl-a-46" style="edgeStyle=orthogonalEdgeStyle;rounded=0;orthogonalLoop=1;jettySize=auto;html=1;entryX=1;entryY=0.06;entryDx=0;entryDy=0;entryPerimeter=0;" parent="yD0MJmRRE8yGqpeuUl-a-205" source="yD0MJmRRE8yGqpeuUl-a-8" edge="1">
          <mxGeometry relative="1" as="geometry">
            <mxPoint x="344.375" y="208.41705426356594" as="targetPoint" />
          </mxGeometry>
        </mxCell>
        <mxCell id="yD0MJmRRE8yGqpeuUl-a-207" value="Text" style="edgeLabel;html=1;align=center;verticalAlign=middle;resizable=0;points=[];" parent="yD0MJmRRE8yGqpeuUl-a-46" vertex="1" connectable="0">
          <mxGeometry x="0.8132" y="-7" relative="1" as="geometry">
            <mxPoint x="-1" y="30" as="offset" />
          </mxGeometry>
        </mxCell>
        <mxCell id="yD0MJmRRE8yGqpeuUl-a-211" style="edgeStyle=orthogonalEdgeStyle;rounded=0;orthogonalLoop=1;jettySize=auto;html=1;exitX=0.5;exitY=0;exitDx=0;exitDy=0;entryX=0.5;entryY=0;entryDx=0;entryDy=0;" parent="yD0MJmRRE8yGqpeuUl-a-205" source="yD0MJmRRE8yGqpeuUl-a-8" target="yD0MJmRRE8yGqpeuUl-a-0" edge="1">
          <mxGeometry relative="1" as="geometry" />
        </mxCell>
        <mxCell id="yD0MJmRRE8yGqpeuUl-a-8" value="" style="rounded=1;whiteSpace=wrap;html=1;" parent="yD0MJmRRE8yGqpeuUl-a-205" vertex="1">
          <mxGeometry x="362.5" y="111.0077519379845" width="217.5" height="194.26356589147287" as="geometry" />
        </mxCell>
        <mxCell id="yD0MJmRRE8yGqpeuUl-a-32" style="edgeStyle=orthogonalEdgeStyle;rounded=0;orthogonalLoop=1;jettySize=auto;html=1;exitX=0.5;exitY=0;exitDx=0;exitDy=0;" parent="yD0MJmRRE8yGqpeuUl-a-205" source="yD0MJmRRE8yGqpeuUl-a-9" target="yD0MJmRRE8yGqpeuUl-a-8" edge="1">
          <mxGeometry relative="1" as="geometry" />
        </mxCell>
        <mxCell id="yD0MJmRRE8yGqpeuUl-a-47" style="edgeStyle=orthogonalEdgeStyle;rounded=0;orthogonalLoop=1;jettySize=auto;html=1;exitX=0;exitY=0.5;exitDx=0;exitDy=0;entryX=1.021;entryY=0.18;entryDx=0;entryDy=0;entryPerimeter=0;" parent="yD0MJmRRE8yGqpeuUl-a-205" source="yD0MJmRRE8yGqpeuUl-a-9" edge="1">
          <mxGeometry relative="1" as="geometry">
            <mxPoint x="346.6587500000004" y="403.23565891472856" as="targetPoint" />
          </mxGeometry>
        </mxCell>
        <mxCell id="yD0MJmRRE8yGqpeuUl-a-9" value="" style="rounded=1;whiteSpace=wrap;html=1;" parent="yD0MJmRRE8yGqpeuUl-a-205" vertex="1">
          <mxGeometry x="362.5" y="305.27131782945736" width="217.5" height="194.26356589147287" as="geometry" />
        </mxCell>
        <mxCell id="yD0MJmRRE8yGqpeuUl-a-31" style="edgeStyle=orthogonalEdgeStyle;rounded=0;orthogonalLoop=1;jettySize=auto;html=1;exitX=0.5;exitY=0;exitDx=0;exitDy=0;" parent="yD0MJmRRE8yGqpeuUl-a-205" source="yD0MJmRRE8yGqpeuUl-a-10" target="yD0MJmRRE8yGqpeuUl-a-9" edge="1">
          <mxGeometry relative="1" as="geometry" />
        </mxCell>
        <mxCell id="yD0MJmRRE8yGqpeuUl-a-10" value="" style="rounded=1;whiteSpace=wrap;html=1;" parent="yD0MJmRRE8yGqpeuUl-a-205" vertex="1">
          <mxGeometry x="362.5" y="499.5348837209302" width="217.5" height="194.26356589147287" as="geometry" />
        </mxCell>
        <mxCell id="yD0MJmRRE8yGqpeuUl-a-30" style="edgeStyle=orthogonalEdgeStyle;rounded=0;orthogonalLoop=1;jettySize=auto;html=1;exitX=0.5;exitY=0;exitDx=0;exitDy=0;entryX=0.5;entryY=1;entryDx=0;entryDy=0;" parent="yD0MJmRRE8yGqpeuUl-a-205" source="yD0MJmRRE8yGqpeuUl-a-11" target="yD0MJmRRE8yGqpeuUl-a-10" edge="1">
          <mxGeometry relative="1" as="geometry" />
        </mxCell>
        <mxCell id="yD0MJmRRE8yGqpeuUl-a-11" value="" style="rounded=1;whiteSpace=wrap;html=1;" parent="yD0MJmRRE8yGqpeuUl-a-205" vertex="1">
          <mxGeometry x="362.5" y="693.7984496124031" width="217.5" height="194.26356589147287" as="geometry" />
        </mxCell>
        <mxCell id="yD0MJmRRE8yGqpeuUl-a-29" style="edgeStyle=orthogonalEdgeStyle;rounded=0;orthogonalLoop=1;jettySize=auto;html=1;exitX=0.5;exitY=0;exitDx=0;exitDy=0;" parent="yD0MJmRRE8yGqpeuUl-a-205" target="yD0MJmRRE8yGqpeuUl-a-11" edge="1">
          <mxGeometry relative="1" as="geometry">
            <mxPoint x="471.25" y="957.4418604651163" as="sourcePoint" />
          </mxGeometry>
        </mxCell>
        <mxCell id="yD0MJmRRE8yGqpeuUl-a-12" value="" style="rounded=1;whiteSpace=wrap;html=1;" parent="yD0MJmRRE8yGqpeuUl-a-205" vertex="1">
          <mxGeometry x="362.5" y="888.062015503876" width="217.5" height="194.26356589147287" as="geometry" />
        </mxCell>
        <mxCell id="yD0MJmRRE8yGqpeuUl-a-28" style="edgeStyle=orthogonalEdgeStyle;rounded=0;orthogonalLoop=1;jettySize=auto;html=1;exitX=0.5;exitY=0;exitDx=0;exitDy=0;entryX=0.5;entryY=1;entryDx=0;entryDy=0;" parent="yD0MJmRRE8yGqpeuUl-a-205" source="yD0MJmRRE8yGqpeuUl-a-13" target="yD0MJmRRE8yGqpeuUl-a-12" edge="1">
          <mxGeometry relative="1" as="geometry" />
        </mxCell>
        <mxCell id="yD0MJmRRE8yGqpeuUl-a-13" value="" style="rounded=1;whiteSpace=wrap;html=1;" parent="yD0MJmRRE8yGqpeuUl-a-205" vertex="1">
          <mxGeometry x="362.5" y="1082.3255813953488" width="217.5" height="194.26356589147287" as="geometry" />
        </mxCell>
        <mxCell id="yD0MJmRRE8yGqpeuUl-a-27" style="edgeStyle=orthogonalEdgeStyle;rounded=0;orthogonalLoop=1;jettySize=auto;html=1;exitX=0.5;exitY=0;exitDx=0;exitDy=0;" parent="yD0MJmRRE8yGqpeuUl-a-205" source="yD0MJmRRE8yGqpeuUl-a-14" target="yD0MJmRRE8yGqpeuUl-a-13" edge="1">
          <mxGeometry relative="1" as="geometry" />
        </mxCell>
        <mxCell id="yD0MJmRRE8yGqpeuUl-a-14" value="" style="rounded=1;whiteSpace=wrap;html=1;" parent="yD0MJmRRE8yGqpeuUl-a-205" vertex="1">
          <mxGeometry x="362.5" y="1276.5891472868218" width="217.5" height="194.26356589147287" as="geometry" />
        </mxCell>
        <mxCell id="yD0MJmRRE8yGqpeuUl-a-26" style="edgeStyle=orthogonalEdgeStyle;rounded=0;orthogonalLoop=1;jettySize=auto;html=1;exitX=0.5;exitY=0;exitDx=0;exitDy=0;" parent="yD0MJmRRE8yGqpeuUl-a-205" source="yD0MJmRRE8yGqpeuUl-a-15" target="yD0MJmRRE8yGqpeuUl-a-14" edge="1">
          <mxGeometry relative="1" as="geometry" />
        </mxCell>
        <mxCell id="yD0MJmRRE8yGqpeuUl-a-15" value="" style="rounded=1;whiteSpace=wrap;html=1;" parent="yD0MJmRRE8yGqpeuUl-a-205" vertex="1">
          <mxGeometry x="362.5" y="1470.8527131782946" width="217.5" height="194.26356589147287" as="geometry" />
        </mxCell>
        <mxCell id="yD0MJmRRE8yGqpeuUl-a-206" value="" style="edgeStyle=orthogonalEdgeStyle;rounded=0;orthogonalLoop=1;jettySize=auto;html=1;" parent="yD0MJmRRE8yGqpeuUl-a-205" edge="1">
          <mxGeometry relative="1" as="geometry">
            <mxPoint x="290" y="1706.7441860465115" as="sourcePoint" />
            <mxPoint x="290" y="1706.7441860465124" as="targetPoint" />
          </mxGeometry>
        </mxCell>
        <mxCell id="Fd_m323YIO4nI8VAkQwT-82" value="&lt;font style=&quot;font-size: 40px;&quot;&gt;l2 bank1&lt;/font&gt;" style="text;html=1;strokeColor=none;fillColor=none;align=center;verticalAlign=middle;whiteSpace=wrap;rounded=0;rotation=0;" parent="yD0MJmRRE8yGqpeuUl-a-205" vertex="1">
          <mxGeometry x="198.46875" y="790.9302325581396" width="208.4375" height="166.51162790697674" as="geometry" />
        </mxCell>
      </root>
    </mxGraphModel>
  </diagram>
  <diagram id="94UWDbGY8nuKO4u-43vu" name="rf-sew0">
    <mxGraphModel dx="2954" dy="1136" grid="1" gridSize="10" guides="1" tooltips="1" connect="1" arrows="1" fold="1" page="1" pageScale="1" pageWidth="850" pageHeight="1100" math="0" shadow="0">
      <root>
        <mxCell id="0" />
        <mxCell id="1" parent="0" />
        <mxCell id="aC4POqXw6MDmEQ6x1BdS-2" value="" style="shape=table;html=1;whiteSpace=wrap;startSize=0;container=1;collapsible=0;childLayout=tableLayout;" parent="1" vertex="1">
          <mxGeometry x="350" y="210" width="240" height="200" as="geometry" />
        </mxCell>
        <mxCell id="aC4POqXw6MDmEQ6x1BdS-3" value="" style="shape=tableRow;horizontal=0;startSize=0;swimlaneHead=0;swimlaneBody=0;top=0;left=0;bottom=0;right=0;collapsible=0;dropTarget=0;fillColor=none;points=[[0,0.5],[1,0.5]];portConstraint=eastwest;" parent="aC4POqXw6MDmEQ6x1BdS-2" vertex="1">
          <mxGeometry width="240" height="40" as="geometry" />
        </mxCell>
        <mxCell id="aC4POqXw6MDmEQ6x1BdS-4" value="0" style="shape=partialRectangle;html=1;whiteSpace=wrap;connectable=0;fillColor=none;top=0;left=0;bottom=0;right=0;overflow=hidden;" parent="aC4POqXw6MDmEQ6x1BdS-3" vertex="1">
          <mxGeometry width="60" height="40" as="geometry">
            <mxRectangle width="60" height="40" as="alternateBounds" />
          </mxGeometry>
        </mxCell>
        <mxCell id="aC4POqXw6MDmEQ6x1BdS-5" value="1" style="shape=partialRectangle;html=1;whiteSpace=wrap;connectable=0;fillColor=none;top=0;left=0;bottom=0;right=0;overflow=hidden;" parent="aC4POqXw6MDmEQ6x1BdS-3" vertex="1">
          <mxGeometry x="60" width="60" height="40" as="geometry">
            <mxRectangle width="60" height="40" as="alternateBounds" />
          </mxGeometry>
        </mxCell>
        <mxCell id="aC4POqXw6MDmEQ6x1BdS-18" value="2" style="shape=partialRectangle;html=1;whiteSpace=wrap;connectable=0;fillColor=none;top=0;left=0;bottom=0;right=0;overflow=hidden;" parent="aC4POqXw6MDmEQ6x1BdS-3" vertex="1">
          <mxGeometry x="120" width="60" height="40" as="geometry">
            <mxRectangle width="60" height="40" as="alternateBounds" />
          </mxGeometry>
        </mxCell>
        <mxCell id="aC4POqXw6MDmEQ6x1BdS-6" value="3" style="shape=partialRectangle;html=1;whiteSpace=wrap;connectable=0;fillColor=none;top=0;left=0;bottom=0;right=0;overflow=hidden;" parent="aC4POqXw6MDmEQ6x1BdS-3" vertex="1">
          <mxGeometry x="180" width="60" height="40" as="geometry">
            <mxRectangle width="60" height="40" as="alternateBounds" />
          </mxGeometry>
        </mxCell>
        <mxCell id="aC4POqXw6MDmEQ6x1BdS-21" style="shape=tableRow;horizontal=0;startSize=0;swimlaneHead=0;swimlaneBody=0;top=0;left=0;bottom=0;right=0;collapsible=0;dropTarget=0;fillColor=none;points=[[0,0.5],[1,0.5]];portConstraint=eastwest;" parent="aC4POqXw6MDmEQ6x1BdS-2" vertex="1">
          <mxGeometry y="40" width="240" height="40" as="geometry" />
        </mxCell>
        <mxCell id="aC4POqXw6MDmEQ6x1BdS-22" value="3" style="shape=partialRectangle;html=1;whiteSpace=wrap;connectable=0;fillColor=none;top=0;left=0;bottom=0;right=0;overflow=hidden;" parent="aC4POqXw6MDmEQ6x1BdS-21" vertex="1">
          <mxGeometry width="60" height="40" as="geometry">
            <mxRectangle width="60" height="40" as="alternateBounds" />
          </mxGeometry>
        </mxCell>
        <mxCell id="aC4POqXw6MDmEQ6x1BdS-23" value="0" style="shape=partialRectangle;html=1;whiteSpace=wrap;connectable=0;fillColor=none;top=0;left=0;bottom=0;right=0;overflow=hidden;" parent="aC4POqXw6MDmEQ6x1BdS-21" vertex="1">
          <mxGeometry x="60" width="60" height="40" as="geometry">
            <mxRectangle width="60" height="40" as="alternateBounds" />
          </mxGeometry>
        </mxCell>
        <mxCell id="aC4POqXw6MDmEQ6x1BdS-24" value="1" style="shape=partialRectangle;html=1;whiteSpace=wrap;connectable=0;fillColor=none;top=0;left=0;bottom=0;right=0;overflow=hidden;" parent="aC4POqXw6MDmEQ6x1BdS-21" vertex="1">
          <mxGeometry x="120" width="60" height="40" as="geometry">
            <mxRectangle width="60" height="40" as="alternateBounds" />
          </mxGeometry>
        </mxCell>
        <mxCell id="aC4POqXw6MDmEQ6x1BdS-25" value="2" style="shape=partialRectangle;html=1;whiteSpace=wrap;connectable=0;fillColor=none;top=0;left=0;bottom=0;right=0;overflow=hidden;" parent="aC4POqXw6MDmEQ6x1BdS-21" vertex="1">
          <mxGeometry x="180" width="60" height="40" as="geometry">
            <mxRectangle width="60" height="40" as="alternateBounds" />
          </mxGeometry>
        </mxCell>
        <mxCell id="aC4POqXw6MDmEQ6x1BdS-26" style="shape=tableRow;horizontal=0;startSize=0;swimlaneHead=0;swimlaneBody=0;top=0;left=0;bottom=0;right=0;collapsible=0;dropTarget=0;fillColor=none;points=[[0,0.5],[1,0.5]];portConstraint=eastwest;" parent="aC4POqXw6MDmEQ6x1BdS-2" vertex="1">
          <mxGeometry y="80" width="240" height="40" as="geometry" />
        </mxCell>
        <mxCell id="aC4POqXw6MDmEQ6x1BdS-27" value="2" style="shape=partialRectangle;html=1;whiteSpace=wrap;connectable=0;fillColor=none;top=0;left=0;bottom=0;right=0;overflow=hidden;" parent="aC4POqXw6MDmEQ6x1BdS-26" vertex="1">
          <mxGeometry width="60" height="40" as="geometry">
            <mxRectangle width="60" height="40" as="alternateBounds" />
          </mxGeometry>
        </mxCell>
        <mxCell id="aC4POqXw6MDmEQ6x1BdS-28" value="3" style="shape=partialRectangle;html=1;whiteSpace=wrap;connectable=0;fillColor=none;top=0;left=0;bottom=0;right=0;overflow=hidden;" parent="aC4POqXw6MDmEQ6x1BdS-26" vertex="1">
          <mxGeometry x="60" width="60" height="40" as="geometry">
            <mxRectangle width="60" height="40" as="alternateBounds" />
          </mxGeometry>
        </mxCell>
        <mxCell id="aC4POqXw6MDmEQ6x1BdS-29" value="0" style="shape=partialRectangle;html=1;whiteSpace=wrap;connectable=0;fillColor=none;top=0;left=0;bottom=0;right=0;overflow=hidden;" parent="aC4POqXw6MDmEQ6x1BdS-26" vertex="1">
          <mxGeometry x="120" width="60" height="40" as="geometry">
            <mxRectangle width="60" height="40" as="alternateBounds" />
          </mxGeometry>
        </mxCell>
        <mxCell id="aC4POqXw6MDmEQ6x1BdS-30" value="1" style="shape=partialRectangle;html=1;whiteSpace=wrap;connectable=0;fillColor=none;top=0;left=0;bottom=0;right=0;overflow=hidden;" parent="aC4POqXw6MDmEQ6x1BdS-26" vertex="1">
          <mxGeometry x="180" width="60" height="40" as="geometry">
            <mxRectangle width="60" height="40" as="alternateBounds" />
          </mxGeometry>
        </mxCell>
        <mxCell id="aC4POqXw6MDmEQ6x1BdS-7" value="" style="shape=tableRow;horizontal=0;startSize=0;swimlaneHead=0;swimlaneBody=0;top=0;left=0;bottom=0;right=0;collapsible=0;dropTarget=0;fillColor=none;points=[[0,0.5],[1,0.5]];portConstraint=eastwest;" parent="aC4POqXw6MDmEQ6x1BdS-2" vertex="1">
          <mxGeometry y="120" width="240" height="40" as="geometry" />
        </mxCell>
        <mxCell id="aC4POqXw6MDmEQ6x1BdS-8" value="1" style="shape=partialRectangle;html=1;whiteSpace=wrap;connectable=0;fillColor=none;top=0;left=0;bottom=0;right=0;overflow=hidden;" parent="aC4POqXw6MDmEQ6x1BdS-7" vertex="1">
          <mxGeometry width="60" height="40" as="geometry">
            <mxRectangle width="60" height="40" as="alternateBounds" />
          </mxGeometry>
        </mxCell>
        <mxCell id="aC4POqXw6MDmEQ6x1BdS-9" value="2" style="shape=partialRectangle;html=1;whiteSpace=wrap;connectable=0;fillColor=none;top=0;left=0;bottom=0;right=0;overflow=hidden;" parent="aC4POqXw6MDmEQ6x1BdS-7" vertex="1">
          <mxGeometry x="60" width="60" height="40" as="geometry">
            <mxRectangle width="60" height="40" as="alternateBounds" />
          </mxGeometry>
        </mxCell>
        <mxCell id="aC4POqXw6MDmEQ6x1BdS-19" value="3" style="shape=partialRectangle;html=1;whiteSpace=wrap;connectable=0;fillColor=none;top=0;left=0;bottom=0;right=0;overflow=hidden;" parent="aC4POqXw6MDmEQ6x1BdS-7" vertex="1">
          <mxGeometry x="120" width="60" height="40" as="geometry">
            <mxRectangle width="60" height="40" as="alternateBounds" />
          </mxGeometry>
        </mxCell>
        <mxCell id="aC4POqXw6MDmEQ6x1BdS-10" value="0" style="shape=partialRectangle;html=1;whiteSpace=wrap;connectable=0;fillColor=none;top=0;left=0;bottom=0;right=0;overflow=hidden;" parent="aC4POqXw6MDmEQ6x1BdS-7" vertex="1">
          <mxGeometry x="180" width="60" height="40" as="geometry">
            <mxRectangle width="60" height="40" as="alternateBounds" />
          </mxGeometry>
        </mxCell>
        <mxCell id="aC4POqXw6MDmEQ6x1BdS-11" value="" style="shape=tableRow;horizontal=0;startSize=0;swimlaneHead=0;swimlaneBody=0;top=0;left=0;bottom=0;right=0;collapsible=0;dropTarget=0;fillColor=none;points=[[0,0.5],[1,0.5]];portConstraint=eastwest;" parent="aC4POqXw6MDmEQ6x1BdS-2" vertex="1">
          <mxGeometry y="160" width="240" height="40" as="geometry" />
        </mxCell>
        <mxCell id="aC4POqXw6MDmEQ6x1BdS-12" value="0" style="shape=partialRectangle;html=1;whiteSpace=wrap;connectable=0;fillColor=none;top=0;left=0;bottom=0;right=0;overflow=hidden;" parent="aC4POqXw6MDmEQ6x1BdS-11" vertex="1">
          <mxGeometry width="60" height="40" as="geometry">
            <mxRectangle width="60" height="40" as="alternateBounds" />
          </mxGeometry>
        </mxCell>
        <mxCell id="aC4POqXw6MDmEQ6x1BdS-13" value="1" style="shape=partialRectangle;html=1;whiteSpace=wrap;connectable=0;fillColor=none;top=0;left=0;bottom=0;right=0;overflow=hidden;" parent="aC4POqXw6MDmEQ6x1BdS-11" vertex="1">
          <mxGeometry x="60" width="60" height="40" as="geometry">
            <mxRectangle width="60" height="40" as="alternateBounds" />
          </mxGeometry>
        </mxCell>
        <mxCell id="aC4POqXw6MDmEQ6x1BdS-20" value="2" style="shape=partialRectangle;html=1;whiteSpace=wrap;connectable=0;fillColor=none;top=0;left=0;bottom=0;right=0;overflow=hidden;pointerEvents=1;" parent="aC4POqXw6MDmEQ6x1BdS-11" vertex="1">
          <mxGeometry x="120" width="60" height="40" as="geometry">
            <mxRectangle width="60" height="40" as="alternateBounds" />
          </mxGeometry>
        </mxCell>
        <mxCell id="aC4POqXw6MDmEQ6x1BdS-14" value="3" style="shape=partialRectangle;html=1;whiteSpace=wrap;connectable=0;fillColor=none;top=0;left=0;bottom=0;right=0;overflow=hidden;pointerEvents=1;" parent="aC4POqXw6MDmEQ6x1BdS-11" vertex="1">
          <mxGeometry x="180" width="60" height="40" as="geometry">
            <mxRectangle width="60" height="40" as="alternateBounds" />
          </mxGeometry>
        </mxCell>
      </root>
    </mxGraphModel>
  </diagram>
  <diagram name="lane_reg" id="cbR4ob_t3_stJyjg6ZGC">
    <mxGraphModel dx="2954" dy="1136" grid="1" gridSize="10" guides="1" tooltips="1" connect="1" arrows="1" fold="1" page="1" pageScale="1" pageWidth="850" pageHeight="1100" math="0" shadow="0">
      <root>
        <mxCell id="5pBLpMa8NUD5fi9YhtwM-0" />
        <mxCell id="5pBLpMa8NUD5fi9YhtwM-1" parent="5pBLpMa8NUD5fi9YhtwM-0" />
        <mxCell id="5pBLpMa8NUD5fi9YhtwM-2" value="" style="shape=table;html=1;whiteSpace=wrap;startSize=0;container=1;collapsible=0;childLayout=tableLayout;" parent="5pBLpMa8NUD5fi9YhtwM-1" vertex="1">
          <mxGeometry x="350" y="210" width="240" height="160" as="geometry" />
        </mxCell>
        <mxCell id="5pBLpMa8NUD5fi9YhtwM-3" value="" style="shape=tableRow;horizontal=0;startSize=0;swimlaneHead=0;swimlaneBody=0;top=0;left=0;bottom=0;right=0;collapsible=0;dropTarget=0;fillColor=none;points=[[0,0.5],[1,0.5]];portConstraint=eastwest;" parent="5pBLpMa8NUD5fi9YhtwM-2" vertex="1">
          <mxGeometry width="240" height="40" as="geometry" />
        </mxCell>
        <mxCell id="5pBLpMa8NUD5fi9YhtwM-4" value="0" style="shape=partialRectangle;html=1;whiteSpace=wrap;connectable=0;fillColor=none;top=0;left=0;bottom=0;right=0;overflow=hidden;" parent="5pBLpMa8NUD5fi9YhtwM-3" vertex="1">
          <mxGeometry width="60" height="40" as="geometry">
            <mxRectangle width="60" height="40" as="alternateBounds" />
          </mxGeometry>
        </mxCell>
        <mxCell id="5pBLpMa8NUD5fi9YhtwM-5" value="1" style="shape=partialRectangle;html=1;whiteSpace=wrap;connectable=0;fillColor=none;top=0;left=0;bottom=0;right=0;overflow=hidden;" parent="5pBLpMa8NUD5fi9YhtwM-3" vertex="1">
          <mxGeometry x="60" width="60" height="40" as="geometry">
            <mxRectangle width="60" height="40" as="alternateBounds" />
          </mxGeometry>
        </mxCell>
        <mxCell id="5pBLpMa8NUD5fi9YhtwM-6" value="2" style="shape=partialRectangle;html=1;whiteSpace=wrap;connectable=0;fillColor=none;top=0;left=0;bottom=0;right=0;overflow=hidden;" parent="5pBLpMa8NUD5fi9YhtwM-3" vertex="1">
          <mxGeometry x="120" width="60" height="40" as="geometry">
            <mxRectangle width="60" height="40" as="alternateBounds" />
          </mxGeometry>
        </mxCell>
        <mxCell id="5pBLpMa8NUD5fi9YhtwM-7" value="3" style="shape=partialRectangle;html=1;whiteSpace=wrap;connectable=0;fillColor=none;top=0;left=0;bottom=0;right=0;overflow=hidden;" parent="5pBLpMa8NUD5fi9YhtwM-3" vertex="1">
          <mxGeometry x="180" width="60" height="40" as="geometry">
            <mxRectangle width="60" height="40" as="alternateBounds" />
          </mxGeometry>
        </mxCell>
        <mxCell id="5pBLpMa8NUD5fi9YhtwM-8" style="shape=tableRow;horizontal=0;startSize=0;swimlaneHead=0;swimlaneBody=0;top=0;left=0;bottom=0;right=0;collapsible=0;dropTarget=0;fillColor=none;points=[[0,0.5],[1,0.5]];portConstraint=eastwest;" parent="5pBLpMa8NUD5fi9YhtwM-2" vertex="1">
          <mxGeometry y="40" width="240" height="40" as="geometry" />
        </mxCell>
        <mxCell id="5pBLpMa8NUD5fi9YhtwM-9" value="4" style="shape=partialRectangle;html=1;whiteSpace=wrap;connectable=0;fillColor=none;top=0;left=0;bottom=0;right=0;overflow=hidden;" parent="5pBLpMa8NUD5fi9YhtwM-8" vertex="1">
          <mxGeometry width="60" height="40" as="geometry">
            <mxRectangle width="60" height="40" as="alternateBounds" />
          </mxGeometry>
        </mxCell>
        <mxCell id="5pBLpMa8NUD5fi9YhtwM-10" value="5" style="shape=partialRectangle;html=1;whiteSpace=wrap;connectable=0;fillColor=none;top=0;left=0;bottom=0;right=0;overflow=hidden;" parent="5pBLpMa8NUD5fi9YhtwM-8" vertex="1">
          <mxGeometry x="60" width="60" height="40" as="geometry">
            <mxRectangle width="60" height="40" as="alternateBounds" />
          </mxGeometry>
        </mxCell>
        <mxCell id="5pBLpMa8NUD5fi9YhtwM-11" value="6" style="shape=partialRectangle;html=1;whiteSpace=wrap;connectable=0;fillColor=none;top=0;left=0;bottom=0;right=0;overflow=hidden;" parent="5pBLpMa8NUD5fi9YhtwM-8" vertex="1">
          <mxGeometry x="120" width="60" height="40" as="geometry">
            <mxRectangle width="60" height="40" as="alternateBounds" />
          </mxGeometry>
        </mxCell>
        <mxCell id="5pBLpMa8NUD5fi9YhtwM-12" value="7" style="shape=partialRectangle;html=1;whiteSpace=wrap;connectable=0;fillColor=none;top=0;left=0;bottom=0;right=0;overflow=hidden;" parent="5pBLpMa8NUD5fi9YhtwM-8" vertex="1">
          <mxGeometry x="180" width="60" height="40" as="geometry">
            <mxRectangle width="60" height="40" as="alternateBounds" />
          </mxGeometry>
        </mxCell>
        <mxCell id="5pBLpMa8NUD5fi9YhtwM-13" style="shape=tableRow;horizontal=0;startSize=0;swimlaneHead=0;swimlaneBody=0;top=0;left=0;bottom=0;right=0;collapsible=0;dropTarget=0;fillColor=none;points=[[0,0.5],[1,0.5]];portConstraint=eastwest;" parent="5pBLpMa8NUD5fi9YhtwM-2" vertex="1">
          <mxGeometry y="80" width="240" height="40" as="geometry" />
        </mxCell>
        <mxCell id="5pBLpMa8NUD5fi9YhtwM-14" value="8" style="shape=partialRectangle;html=1;whiteSpace=wrap;connectable=0;fillColor=none;top=0;left=0;bottom=0;right=0;overflow=hidden;" parent="5pBLpMa8NUD5fi9YhtwM-13" vertex="1">
          <mxGeometry width="60" height="40" as="geometry">
            <mxRectangle width="60" height="40" as="alternateBounds" />
          </mxGeometry>
        </mxCell>
        <mxCell id="5pBLpMa8NUD5fi9YhtwM-15" value="9" style="shape=partialRectangle;html=1;whiteSpace=wrap;connectable=0;fillColor=none;top=0;left=0;bottom=0;right=0;overflow=hidden;" parent="5pBLpMa8NUD5fi9YhtwM-13" vertex="1">
          <mxGeometry x="60" width="60" height="40" as="geometry">
            <mxRectangle width="60" height="40" as="alternateBounds" />
          </mxGeometry>
        </mxCell>
        <mxCell id="5pBLpMa8NUD5fi9YhtwM-16" value="a" style="shape=partialRectangle;html=1;whiteSpace=wrap;connectable=0;fillColor=none;top=0;left=0;bottom=0;right=0;overflow=hidden;" parent="5pBLpMa8NUD5fi9YhtwM-13" vertex="1">
          <mxGeometry x="120" width="60" height="40" as="geometry">
            <mxRectangle width="60" height="40" as="alternateBounds" />
          </mxGeometry>
        </mxCell>
        <mxCell id="5pBLpMa8NUD5fi9YhtwM-17" value="b" style="shape=partialRectangle;html=1;whiteSpace=wrap;connectable=0;fillColor=none;top=0;left=0;bottom=0;right=0;overflow=hidden;" parent="5pBLpMa8NUD5fi9YhtwM-13" vertex="1">
          <mxGeometry x="180" width="60" height="40" as="geometry">
            <mxRectangle width="60" height="40" as="alternateBounds" />
          </mxGeometry>
        </mxCell>
        <mxCell id="5pBLpMa8NUD5fi9YhtwM-18" value="" style="shape=tableRow;horizontal=0;startSize=0;swimlaneHead=0;swimlaneBody=0;top=0;left=0;bottom=0;right=0;collapsible=0;dropTarget=0;fillColor=none;points=[[0,0.5],[1,0.5]];portConstraint=eastwest;" parent="5pBLpMa8NUD5fi9YhtwM-2" vertex="1">
          <mxGeometry y="120" width="240" height="40" as="geometry" />
        </mxCell>
        <mxCell id="5pBLpMa8NUD5fi9YhtwM-19" value="c" style="shape=partialRectangle;html=1;whiteSpace=wrap;connectable=0;fillColor=none;top=0;left=0;bottom=0;right=0;overflow=hidden;" parent="5pBLpMa8NUD5fi9YhtwM-18" vertex="1">
          <mxGeometry width="60" height="40" as="geometry">
            <mxRectangle width="60" height="40" as="alternateBounds" />
          </mxGeometry>
        </mxCell>
        <mxCell id="5pBLpMa8NUD5fi9YhtwM-20" value="d" style="shape=partialRectangle;html=1;whiteSpace=wrap;connectable=0;fillColor=none;top=0;left=0;bottom=0;right=0;overflow=hidden;" parent="5pBLpMa8NUD5fi9YhtwM-18" vertex="1">
          <mxGeometry x="60" width="60" height="40" as="geometry">
            <mxRectangle width="60" height="40" as="alternateBounds" />
          </mxGeometry>
        </mxCell>
        <mxCell id="5pBLpMa8NUD5fi9YhtwM-21" value="e" style="shape=partialRectangle;html=1;whiteSpace=wrap;connectable=0;fillColor=none;top=0;left=0;bottom=0;right=0;overflow=hidden;" parent="5pBLpMa8NUD5fi9YhtwM-18" vertex="1">
          <mxGeometry x="120" width="60" height="40" as="geometry">
            <mxRectangle width="60" height="40" as="alternateBounds" />
          </mxGeometry>
        </mxCell>
        <mxCell id="5pBLpMa8NUD5fi9YhtwM-22" value="f" style="shape=partialRectangle;html=1;whiteSpace=wrap;connectable=0;fillColor=none;top=0;left=0;bottom=0;right=0;overflow=hidden;" parent="5pBLpMa8NUD5fi9YhtwM-18" vertex="1">
          <mxGeometry x="180" width="60" height="40" as="geometry">
            <mxRectangle width="60" height="40" as="alternateBounds" />
          </mxGeometry>
        </mxCell>
        <mxCell id="HtamNilsyTcE6xxk80yg-0" value="" style="shape=table;html=1;whiteSpace=wrap;startSize=0;container=1;collapsible=0;childLayout=tableLayout;" parent="5pBLpMa8NUD5fi9YhtwM-1" vertex="1">
          <mxGeometry x="350" y="390" width="240" height="160" as="geometry" />
        </mxCell>
        <mxCell id="HtamNilsyTcE6xxk80yg-1" value="" style="shape=tableRow;horizontal=0;startSize=0;swimlaneHead=0;swimlaneBody=0;top=0;left=0;bottom=0;right=0;collapsible=0;dropTarget=0;fillColor=none;points=[[0,0.5],[1,0.5]];portConstraint=eastwest;" parent="HtamNilsyTcE6xxk80yg-0" vertex="1">
          <mxGeometry width="240" height="40" as="geometry" />
        </mxCell>
        <mxCell id="HtamNilsyTcE6xxk80yg-2" value="0" style="shape=partialRectangle;html=1;whiteSpace=wrap;connectable=0;fillColor=none;top=0;left=0;bottom=0;right=0;overflow=hidden;" parent="HtamNilsyTcE6xxk80yg-1" vertex="1">
          <mxGeometry width="60" height="40" as="geometry">
            <mxRectangle width="60" height="40" as="alternateBounds" />
          </mxGeometry>
        </mxCell>
        <mxCell id="HtamNilsyTcE6xxk80yg-3" value="1" style="shape=partialRectangle;html=1;whiteSpace=wrap;connectable=0;fillColor=none;top=0;left=0;bottom=0;right=0;overflow=hidden;" parent="HtamNilsyTcE6xxk80yg-1" vertex="1">
          <mxGeometry x="60" width="60" height="40" as="geometry">
            <mxRectangle width="60" height="40" as="alternateBounds" />
          </mxGeometry>
        </mxCell>
        <mxCell id="HtamNilsyTcE6xxk80yg-4" value="2" style="shape=partialRectangle;html=1;whiteSpace=wrap;connectable=0;fillColor=none;top=0;left=0;bottom=0;right=0;overflow=hidden;" parent="HtamNilsyTcE6xxk80yg-1" vertex="1">
          <mxGeometry x="120" width="60" height="40" as="geometry">
            <mxRectangle width="60" height="40" as="alternateBounds" />
          </mxGeometry>
        </mxCell>
        <mxCell id="HtamNilsyTcE6xxk80yg-5" value="3" style="shape=partialRectangle;html=1;whiteSpace=wrap;connectable=0;fillColor=none;top=0;left=0;bottom=0;right=0;overflow=hidden;" parent="HtamNilsyTcE6xxk80yg-1" vertex="1">
          <mxGeometry x="180" width="60" height="40" as="geometry">
            <mxRectangle width="60" height="40" as="alternateBounds" />
          </mxGeometry>
        </mxCell>
        <mxCell id="HtamNilsyTcE6xxk80yg-6" style="shape=tableRow;horizontal=0;startSize=0;swimlaneHead=0;swimlaneBody=0;top=0;left=0;bottom=0;right=0;collapsible=0;dropTarget=0;fillColor=none;points=[[0,0.5],[1,0.5]];portConstraint=eastwest;" parent="HtamNilsyTcE6xxk80yg-0" vertex="1">
          <mxGeometry y="40" width="240" height="40" as="geometry" />
        </mxCell>
        <mxCell id="HtamNilsyTcE6xxk80yg-7" value="4" style="shape=partialRectangle;html=1;whiteSpace=wrap;connectable=0;fillColor=none;top=0;left=0;bottom=0;right=0;overflow=hidden;" parent="HtamNilsyTcE6xxk80yg-6" vertex="1">
          <mxGeometry width="60" height="40" as="geometry">
            <mxRectangle width="60" height="40" as="alternateBounds" />
          </mxGeometry>
        </mxCell>
        <mxCell id="HtamNilsyTcE6xxk80yg-8" value="5" style="shape=partialRectangle;html=1;whiteSpace=wrap;connectable=0;fillColor=none;top=0;left=0;bottom=0;right=0;overflow=hidden;" parent="HtamNilsyTcE6xxk80yg-6" vertex="1">
          <mxGeometry x="60" width="60" height="40" as="geometry">
            <mxRectangle width="60" height="40" as="alternateBounds" />
          </mxGeometry>
        </mxCell>
        <mxCell id="HtamNilsyTcE6xxk80yg-9" value="6" style="shape=partialRectangle;html=1;whiteSpace=wrap;connectable=0;fillColor=none;top=0;left=0;bottom=0;right=0;overflow=hidden;" parent="HtamNilsyTcE6xxk80yg-6" vertex="1">
          <mxGeometry x="120" width="60" height="40" as="geometry">
            <mxRectangle width="60" height="40" as="alternateBounds" />
          </mxGeometry>
        </mxCell>
        <mxCell id="HtamNilsyTcE6xxk80yg-10" value="7" style="shape=partialRectangle;html=1;whiteSpace=wrap;connectable=0;fillColor=none;top=0;left=0;bottom=0;right=0;overflow=hidden;" parent="HtamNilsyTcE6xxk80yg-6" vertex="1">
          <mxGeometry x="180" width="60" height="40" as="geometry">
            <mxRectangle width="60" height="40" as="alternateBounds" />
          </mxGeometry>
        </mxCell>
        <mxCell id="HtamNilsyTcE6xxk80yg-11" style="shape=tableRow;horizontal=0;startSize=0;swimlaneHead=0;swimlaneBody=0;top=0;left=0;bottom=0;right=0;collapsible=0;dropTarget=0;fillColor=none;points=[[0,0.5],[1,0.5]];portConstraint=eastwest;" parent="HtamNilsyTcE6xxk80yg-0" vertex="1">
          <mxGeometry y="80" width="240" height="40" as="geometry" />
        </mxCell>
        <mxCell id="HtamNilsyTcE6xxk80yg-12" value="8" style="shape=partialRectangle;html=1;whiteSpace=wrap;connectable=0;fillColor=none;top=0;left=0;bottom=0;right=0;overflow=hidden;" parent="HtamNilsyTcE6xxk80yg-11" vertex="1">
          <mxGeometry width="60" height="40" as="geometry">
            <mxRectangle width="60" height="40" as="alternateBounds" />
          </mxGeometry>
        </mxCell>
        <mxCell id="HtamNilsyTcE6xxk80yg-13" value="9" style="shape=partialRectangle;html=1;whiteSpace=wrap;connectable=0;fillColor=none;top=0;left=0;bottom=0;right=0;overflow=hidden;" parent="HtamNilsyTcE6xxk80yg-11" vertex="1">
          <mxGeometry x="60" width="60" height="40" as="geometry">
            <mxRectangle width="60" height="40" as="alternateBounds" />
          </mxGeometry>
        </mxCell>
        <mxCell id="HtamNilsyTcE6xxk80yg-14" value="a" style="shape=partialRectangle;html=1;whiteSpace=wrap;connectable=0;fillColor=none;top=0;left=0;bottom=0;right=0;overflow=hidden;" parent="HtamNilsyTcE6xxk80yg-11" vertex="1">
          <mxGeometry x="120" width="60" height="40" as="geometry">
            <mxRectangle width="60" height="40" as="alternateBounds" />
          </mxGeometry>
        </mxCell>
        <mxCell id="HtamNilsyTcE6xxk80yg-15" value="b" style="shape=partialRectangle;html=1;whiteSpace=wrap;connectable=0;fillColor=none;top=0;left=0;bottom=0;right=0;overflow=hidden;" parent="HtamNilsyTcE6xxk80yg-11" vertex="1">
          <mxGeometry x="180" width="60" height="40" as="geometry">
            <mxRectangle width="60" height="40" as="alternateBounds" />
          </mxGeometry>
        </mxCell>
        <mxCell id="HtamNilsyTcE6xxk80yg-16" value="" style="shape=tableRow;horizontal=0;startSize=0;swimlaneHead=0;swimlaneBody=0;top=0;left=0;bottom=0;right=0;collapsible=0;dropTarget=0;fillColor=none;points=[[0,0.5],[1,0.5]];portConstraint=eastwest;" parent="HtamNilsyTcE6xxk80yg-0" vertex="1">
          <mxGeometry y="120" width="240" height="40" as="geometry" />
        </mxCell>
        <mxCell id="HtamNilsyTcE6xxk80yg-17" value="c" style="shape=partialRectangle;html=1;whiteSpace=wrap;connectable=0;fillColor=none;top=0;left=0;bottom=0;right=0;overflow=hidden;" parent="HtamNilsyTcE6xxk80yg-16" vertex="1">
          <mxGeometry width="60" height="40" as="geometry">
            <mxRectangle width="60" height="40" as="alternateBounds" />
          </mxGeometry>
        </mxCell>
        <mxCell id="HtamNilsyTcE6xxk80yg-18" value="d" style="shape=partialRectangle;html=1;whiteSpace=wrap;connectable=0;fillColor=none;top=0;left=0;bottom=0;right=0;overflow=hidden;" parent="HtamNilsyTcE6xxk80yg-16" vertex="1">
          <mxGeometry x="60" width="60" height="40" as="geometry">
            <mxRectangle width="60" height="40" as="alternateBounds" />
          </mxGeometry>
        </mxCell>
        <mxCell id="HtamNilsyTcE6xxk80yg-19" value="e" style="shape=partialRectangle;html=1;whiteSpace=wrap;connectable=0;fillColor=none;top=0;left=0;bottom=0;right=0;overflow=hidden;" parent="HtamNilsyTcE6xxk80yg-16" vertex="1">
          <mxGeometry x="120" width="60" height="40" as="geometry">
            <mxRectangle width="60" height="40" as="alternateBounds" />
          </mxGeometry>
        </mxCell>
        <mxCell id="HtamNilsyTcE6xxk80yg-20" value="f" style="shape=partialRectangle;html=1;whiteSpace=wrap;connectable=0;fillColor=none;top=0;left=0;bottom=0;right=0;overflow=hidden;" parent="HtamNilsyTcE6xxk80yg-16" vertex="1">
          <mxGeometry x="180" width="60" height="40" as="geometry">
            <mxRectangle width="60" height="40" as="alternateBounds" />
          </mxGeometry>
        </mxCell>
        <mxCell id="HtamNilsyTcE6xxk80yg-21" value="Vn" style="text;html=1;strokeColor=none;fillColor=none;align=center;verticalAlign=middle;whiteSpace=wrap;rounded=0;fontSize=12;" parent="5pBLpMa8NUD5fi9YhtwM-1" vertex="1">
          <mxGeometry x="270" y="275" width="60" height="30" as="geometry" />
        </mxCell>
        <mxCell id="HtamNilsyTcE6xxk80yg-22" value="Vn+1" style="text;html=1;strokeColor=none;fillColor=none;align=center;verticalAlign=middle;whiteSpace=wrap;rounded=0;fontSize=12;" parent="5pBLpMa8NUD5fi9YhtwM-1" vertex="1">
          <mxGeometry x="280" y="455" width="60" height="30" as="geometry" />
        </mxCell>
      </root>
    </mxGraphModel>
  </diagram>
  <diagram id="q7cKcK_ZdjvDVcqUGk5E" name="Lane">
    <mxGraphModel dx="2887" dy="783" grid="1" gridSize="10" guides="1" tooltips="1" connect="1" arrows="1" fold="1" page="1" pageScale="1" pageWidth="850" pageHeight="1100" math="0" shadow="0">
      <root>
        <mxCell id="0" />
        <mxCell id="1" parent="0" />
        <mxCell id="-4RLPGXxEpwgVm1W9CNa-1" value="" style="rounded=1;whiteSpace=wrap;html=1;" vertex="1" parent="1">
          <mxGeometry x="-590" y="95" width="220" height="590" as="geometry" />
        </mxCell>
        <mxCell id="0MIduSereLnmbNBYAtJ9-5" value="" style="rounded=1;whiteSpace=wrap;html=1;" vertex="1" parent="1">
          <mxGeometry x="-560" y="230" width="160" height="420" as="geometry" />
        </mxCell>
        <mxCell id="-4RLPGXxEpwgVm1W9CNa-4" value="pipe" style="rounded=1;whiteSpace=wrap;html=1;" vertex="1" parent="1">
          <mxGeometry x="-570" y="230" width="180" height="420" as="geometry" />
        </mxCell>
        <mxCell id="-4RLPGXxEpwgVm1W9CNa-3" value="" style="rounded=1;whiteSpace=wrap;html=1;" vertex="1" parent="1">
          <mxGeometry x="-570" y="120" width="180" height="70" as="geometry" />
        </mxCell>
        <mxCell id="9_oXkgOtp5D4skY0X5dA-1" value="" style="rounded=1;whiteSpace=wrap;html=1;" parent="1" vertex="1">
          <mxGeometry x="-60" y="40" width="540" height="700" as="geometry" />
        </mxCell>
        <mxCell id="9_oXkgOtp5D4skY0X5dA-7" value="" style="group" parent="1" vertex="1" connectable="0">
          <mxGeometry x="-30" y="100" width="455" height="290" as="geometry" />
        </mxCell>
        <mxCell id="9_oXkgOtp5D4skY0X5dA-2" value="slot0" style="rounded=1;whiteSpace=wrap;html=1;" parent="9_oXkgOtp5D4skY0X5dA-7" vertex="1">
          <mxGeometry width="97.5" height="290" as="geometry" />
        </mxCell>
        <mxCell id="pS63CdLQWwdc2Z8TnvfB-1" value="" style="edgeStyle=orthogonalEdgeStyle;rounded=0;orthogonalLoop=1;jettySize=auto;html=1;" edge="1" parent="9_oXkgOtp5D4skY0X5dA-7" source="9_oXkgOtp5D4skY0X5dA-4" target="9_oXkgOtp5D4skY0X5dA-2">
          <mxGeometry relative="1" as="geometry" />
        </mxCell>
        <mxCell id="9_oXkgOtp5D4skY0X5dA-4" value="slot1" style="rounded=1;whiteSpace=wrap;html=1;" parent="9_oXkgOtp5D4skY0X5dA-7" vertex="1">
          <mxGeometry x="119.16666666666667" width="97.5" height="290" as="geometry" />
        </mxCell>
        <mxCell id="pS63CdLQWwdc2Z8TnvfB-2" value="" style="edgeStyle=orthogonalEdgeStyle;rounded=0;orthogonalLoop=1;jettySize=auto;html=1;" edge="1" parent="9_oXkgOtp5D4skY0X5dA-7" source="9_oXkgOtp5D4skY0X5dA-5" target="9_oXkgOtp5D4skY0X5dA-4">
          <mxGeometry relative="1" as="geometry" />
        </mxCell>
        <mxCell id="9_oXkgOtp5D4skY0X5dA-5" value="slot2" style="rounded=1;whiteSpace=wrap;html=1;" parent="9_oXkgOtp5D4skY0X5dA-7" vertex="1">
          <mxGeometry x="238.33333333333334" width="97.5" height="290" as="geometry" />
        </mxCell>
        <mxCell id="pS63CdLQWwdc2Z8TnvfB-3" value="" style="edgeStyle=orthogonalEdgeStyle;rounded=0;orthogonalLoop=1;jettySize=auto;html=1;" edge="1" parent="9_oXkgOtp5D4skY0X5dA-7" source="9_oXkgOtp5D4skY0X5dA-6" target="9_oXkgOtp5D4skY0X5dA-5">
          <mxGeometry relative="1" as="geometry" />
        </mxCell>
        <mxCell id="9_oXkgOtp5D4skY0X5dA-6" value="slot3" style="rounded=1;whiteSpace=wrap;html=1;" parent="9_oXkgOtp5D4skY0X5dA-7" vertex="1">
          <mxGeometry x="357.50000000000006" width="97.5" height="290" as="geometry" />
        </mxCell>
        <mxCell id="9_oXkgOtp5D4skY0X5dA-8" value="&lt;font style=&quot;font-size: 50px;&quot;&gt;vrf&lt;/font&gt;" style="rounded=1;whiteSpace=wrap;html=1;" parent="1" vertex="1">
          <mxGeometry x="-22.5" y="580" width="440" height="70" as="geometry" />
        </mxCell>
        <mxCell id="9_oXkgOtp5D4skY0X5dA-12" value="" style="shape=flexArrow;endArrow=classic;startArrow=classic;html=1;rounded=0;" parent="1" edge="1">
          <mxGeometry width="100" height="100" relative="1" as="geometry">
            <mxPoint x="440" y="149.5" as="sourcePoint" />
            <mxPoint x="540" y="149.5" as="targetPoint" />
          </mxGeometry>
        </mxCell>
        <mxCell id="9_oXkgOtp5D4skY0X5dA-13" value="" style="shape=flexArrow;endArrow=classic;startArrow=classic;html=1;rounded=0;" parent="1" edge="1">
          <mxGeometry width="100" height="100" relative="1" as="geometry">
            <mxPoint x="-120" y="149.5" as="sourcePoint" />
            <mxPoint x="-20" y="149.5" as="targetPoint" />
          </mxGeometry>
        </mxCell>
        <mxCell id="9_oXkgOtp5D4skY0X5dA-14" value="bus" style="text;html=1;strokeColor=none;fillColor=none;align=center;verticalAlign=middle;whiteSpace=wrap;rounded=0;" parent="1" vertex="1">
          <mxGeometry x="470" y="120" width="60" height="30" as="geometry" />
        </mxCell>
        <mxCell id="EJSQ4q1GEnJ-H2VCyN78-7" style="edgeStyle=orthogonalEdgeStyle;rounded=0;orthogonalLoop=1;jettySize=auto;html=1;" parent="1" source="EJSQ4q1GEnJ-H2VCyN78-2" target="9_oXkgOtp5D4skY0X5dA-8" edge="1">
          <mxGeometry relative="1" as="geometry" />
        </mxCell>
        <mxCell id="EJSQ4q1GEnJ-H2VCyN78-2" value="write pipe" style="rounded=1;whiteSpace=wrap;html=1;" parent="1" vertex="1">
          <mxGeometry x="-22.5" y="450" width="440" height="70" as="geometry" />
        </mxCell>
        <mxCell id="EJSQ4q1GEnJ-H2VCyN78-3" style="edgeStyle=orthogonalEdgeStyle;rounded=0;orthogonalLoop=1;jettySize=auto;html=1;" parent="1" source="9_oXkgOtp5D4skY0X5dA-2" target="EJSQ4q1GEnJ-H2VCyN78-2" edge="1">
          <mxGeometry relative="1" as="geometry" />
        </mxCell>
        <mxCell id="EJSQ4q1GEnJ-H2VCyN78-4" style="edgeStyle=orthogonalEdgeStyle;rounded=0;orthogonalLoop=1;jettySize=auto;html=1;" parent="1" source="9_oXkgOtp5D4skY0X5dA-4" target="EJSQ4q1GEnJ-H2VCyN78-2" edge="1">
          <mxGeometry relative="1" as="geometry" />
        </mxCell>
        <mxCell id="EJSQ4q1GEnJ-H2VCyN78-5" style="edgeStyle=orthogonalEdgeStyle;rounded=0;orthogonalLoop=1;jettySize=auto;html=1;entryX=0.5;entryY=0;entryDx=0;entryDy=0;" parent="1" source="9_oXkgOtp5D4skY0X5dA-5" target="EJSQ4q1GEnJ-H2VCyN78-2" edge="1">
          <mxGeometry relative="1" as="geometry" />
        </mxCell>
        <mxCell id="EJSQ4q1GEnJ-H2VCyN78-6" style="edgeStyle=orthogonalEdgeStyle;rounded=0;orthogonalLoop=1;jettySize=auto;html=1;entryX=0.5;entryY=0;entryDx=0;entryDy=0;" parent="1" source="9_oXkgOtp5D4skY0X5dA-6" target="EJSQ4q1GEnJ-H2VCyN78-2" edge="1">
          <mxGeometry relative="1" as="geometry" />
        </mxCell>
        <mxCell id="-4RLPGXxEpwgVm1W9CNa-2" value="meta" style="rounded=1;whiteSpace=wrap;html=1;" vertex="1" parent="1">
          <mxGeometry x="-570" y="130" width="80" height="60" as="geometry" />
        </mxCell>
        <mxCell id="-4RLPGXxEpwgVm1W9CNa-5" value="slot" style="text;html=1;align=center;verticalAlign=middle;whiteSpace=wrap;rounded=0;" vertex="1" parent="1">
          <mxGeometry x="-510" y="50" width="60" height="30" as="geometry" />
        </mxCell>
        <mxCell id="8u0j1QioeeCwdc-9-Cms-1" value="state machie" style="text;html=1;align=center;verticalAlign=middle;whiteSpace=wrap;rounded=0;" vertex="1" parent="1">
          <mxGeometry x="-455" y="145" width="60" height="30" as="geometry" />
        </mxCell>
        <mxCell id="0MIduSereLnmbNBYAtJ9-1" value="stag0" style="rounded=1;whiteSpace=wrap;html=1;" vertex="1" parent="1">
          <mxGeometry x="-540" y="260" width="120" height="60" as="geometry" />
        </mxCell>
        <mxCell id="0MIduSereLnmbNBYAtJ9-2" value="staeg1" style="rounded=1;whiteSpace=wrap;html=1;" vertex="1" parent="1">
          <mxGeometry x="-540" y="340" width="120" height="60" as="geometry" />
        </mxCell>
        <mxCell id="0MIduSereLnmbNBYAtJ9-3" value="stage2 &amp;amp; execution unit" style="rounded=1;whiteSpace=wrap;html=1;" vertex="1" parent="1">
          <mxGeometry x="-540" y="420" width="120" height="60" as="geometry" />
        </mxCell>
        <mxCell id="0MIduSereLnmbNBYAtJ9-4" value="stage3" style="rounded=1;whiteSpace=wrap;html=1;" vertex="1" parent="1">
          <mxGeometry x="-540" y="510" width="120" height="60" as="geometry" />
        </mxCell>
        <mxCell id="0MIduSereLnmbNBYAtJ9-6" value="pipe" style="text;html=1;align=center;verticalAlign=middle;whiteSpace=wrap;rounded=0;" vertex="1" parent="1">
          <mxGeometry x="-510" y="600" width="60" height="30" as="geometry" />
        </mxCell>
        <mxCell id="0MIduSereLnmbNBYAtJ9-7" value="" style="shape=flexArrow;endArrow=classic;startArrow=classic;html=1;rounded=0;entryX=0.5;entryY=1;entryDx=0;entryDy=0;exitX=0.5;exitY=0;exitDx=0;exitDy=0;" edge="1" parent="1" source="0MIduSereLnmbNBYAtJ9-1" target="-4RLPGXxEpwgVm1W9CNa-2">
          <mxGeometry width="100" height="100" relative="1" as="geometry">
            <mxPoint x="-280" y="370" as="sourcePoint" />
            <mxPoint x="-180" y="270" as="targetPoint" />
          </mxGeometry>
        </mxCell>
      </root>
    </mxGraphModel>
  </diagram>
  <diagram id="VZqUgITWz3OKLj7ypua_" name="read_connect">
    <mxGraphModel dx="2954" dy="1136" grid="1" gridSize="10" guides="1" tooltips="1" connect="1" arrows="1" fold="1" page="1" pageScale="1" pageWidth="850" pageHeight="1100" math="0" shadow="0">
      <root>
        <mxCell id="0" />
        <mxCell id="1" parent="0" />
        <mxCell id="WF7GErT4XxJv_d4yZ23c-1" value="" style="group" parent="1" vertex="1" connectable="0">
          <mxGeometry y="330" width="590" height="60" as="geometry" />
        </mxCell>
        <mxCell id="WF7GErT4XxJv_d4yZ23c-2" value="" style="rounded=1;whiteSpace=wrap;html=1;" parent="WF7GErT4XxJv_d4yZ23c-1" vertex="1">
          <mxGeometry width="126.42857142857143" height="60" as="geometry" />
        </mxCell>
        <mxCell id="WF7GErT4XxJv_d4yZ23c-3" value="" style="rounded=1;whiteSpace=wrap;html=1;" parent="WF7GErT4XxJv_d4yZ23c-1" vertex="1">
          <mxGeometry x="154.52380952380955" width="126.42857142857143" height="60" as="geometry" />
        </mxCell>
        <mxCell id="WF7GErT4XxJv_d4yZ23c-4" value="" style="rounded=1;whiteSpace=wrap;html=1;" parent="WF7GErT4XxJv_d4yZ23c-1" vertex="1">
          <mxGeometry x="309.0476190476191" width="126.42857142857143" height="60" as="geometry" />
        </mxCell>
        <mxCell id="WF7GErT4XxJv_d4yZ23c-5" value="inst0" style="rounded=1;whiteSpace=wrap;html=1;" parent="WF7GErT4XxJv_d4yZ23c-1" vertex="1">
          <mxGeometry x="463.57142857142856" width="126.42857142857143" height="60" as="geometry" />
        </mxCell>
        <mxCell id="WF7GErT4XxJv_d4yZ23c-6" value="inst control" style="text;html=1;strokeColor=none;fillColor=none;align=center;verticalAlign=middle;whiteSpace=wrap;rounded=0;fontSize=12;" parent="WF7GErT4XxJv_d4yZ23c-1" vertex="1">
          <mxGeometry x="21.071428571428573" y="20" width="84.28571428571429" height="30" as="geometry" />
        </mxCell>
        <mxCell id="WF7GErT4XxJv_d4yZ23c-7" value="" style="shape=table;startSize=0;container=1;collapsible=0;childLayout=tableLayout;fontSize=12;" parent="1" vertex="1">
          <mxGeometry x="260" y="510" width="360" height="40" as="geometry" />
        </mxCell>
        <mxCell id="WF7GErT4XxJv_d4yZ23c-8" value="" style="shape=tableRow;horizontal=0;startSize=0;swimlaneHead=0;swimlaneBody=0;top=0;left=0;bottom=0;right=0;collapsible=0;dropTarget=0;fillColor=none;points=[[0,0.5],[1,0.5]];portConstraint=eastwest;fontSize=12;" parent="WF7GErT4XxJv_d4yZ23c-7" vertex="1">
          <mxGeometry width="360" height="40" as="geometry" />
        </mxCell>
        <mxCell id="WF7GErT4XxJv_d4yZ23c-9" value="" style="shape=partialRectangle;html=1;whiteSpace=wrap;connectable=0;overflow=hidden;fillColor=none;top=0;left=0;bottom=0;right=0;pointerEvents=1;fontSize=12;" parent="WF7GErT4XxJv_d4yZ23c-8" vertex="1">
          <mxGeometry width="60" height="40" as="geometry">
            <mxRectangle width="60" height="40" as="alternateBounds" />
          </mxGeometry>
        </mxCell>
        <mxCell id="WF7GErT4XxJv_d4yZ23c-10" value="" style="shape=partialRectangle;html=1;whiteSpace=wrap;connectable=0;overflow=hidden;fillColor=none;top=0;left=0;bottom=0;right=0;pointerEvents=1;fontSize=12;" parent="WF7GErT4XxJv_d4yZ23c-8" vertex="1">
          <mxGeometry x="60" width="60" height="40" as="geometry">
            <mxRectangle width="60" height="40" as="alternateBounds" />
          </mxGeometry>
        </mxCell>
        <mxCell id="WF7GErT4XxJv_d4yZ23c-11" value="" style="shape=partialRectangle;html=1;whiteSpace=wrap;connectable=0;overflow=hidden;fillColor=none;top=0;left=0;bottom=0;right=0;pointerEvents=1;fontSize=12;" parent="WF7GErT4XxJv_d4yZ23c-8" vertex="1">
          <mxGeometry x="120" width="60" height="40" as="geometry">
            <mxRectangle width="60" height="40" as="alternateBounds" />
          </mxGeometry>
        </mxCell>
        <mxCell id="WF7GErT4XxJv_d4yZ23c-12" value="" style="shape=partialRectangle;html=1;whiteSpace=wrap;connectable=0;overflow=hidden;fillColor=none;top=0;left=0;bottom=0;right=0;pointerEvents=1;fontSize=12;" parent="WF7GErT4XxJv_d4yZ23c-8" vertex="1">
          <mxGeometry x="180" width="60" height="40" as="geometry">
            <mxRectangle width="60" height="40" as="alternateBounds" />
          </mxGeometry>
        </mxCell>
        <mxCell id="WF7GErT4XxJv_d4yZ23c-13" value="" style="shape=partialRectangle;html=1;whiteSpace=wrap;connectable=0;overflow=hidden;fillColor=none;top=0;left=0;bottom=0;right=0;pointerEvents=1;fontSize=12;" parent="WF7GErT4XxJv_d4yZ23c-8" vertex="1">
          <mxGeometry x="240" width="60" height="40" as="geometry">
            <mxRectangle width="60" height="40" as="alternateBounds" />
          </mxGeometry>
        </mxCell>
        <mxCell id="WF7GErT4XxJv_d4yZ23c-14" value="" style="shape=partialRectangle;html=1;whiteSpace=wrap;connectable=0;overflow=hidden;fillColor=none;top=0;left=0;bottom=0;right=0;pointerEvents=1;fontSize=12;" parent="WF7GErT4XxJv_d4yZ23c-8" vertex="1">
          <mxGeometry x="300" width="60" height="40" as="geometry">
            <mxRectangle width="60" height="40" as="alternateBounds" />
          </mxGeometry>
        </mxCell>
        <mxCell id="WF7GErT4XxJv_d4yZ23c-15" style="edgeStyle=orthogonalEdgeStyle;rounded=0;orthogonalLoop=1;jettySize=auto;html=1;entryX=0.911;entryY=0.013;entryDx=0;entryDy=0;entryPerimeter=0;fontSize=12;" parent="1" source="WF7GErT4XxJv_d4yZ23c-5" target="WF7GErT4XxJv_d4yZ23c-8" edge="1">
          <mxGeometry relative="1" as="geometry">
            <Array as="points">
              <mxPoint x="550" y="450" />
              <mxPoint x="588" y="450" />
            </Array>
          </mxGeometry>
        </mxCell>
        <mxCell id="WF7GErT4XxJv_d4yZ23c-16" style="edgeStyle=orthogonalEdgeStyle;rounded=0;orthogonalLoop=1;jettySize=auto;html=1;entryX=0.739;entryY=0.025;entryDx=0;entryDy=0;entryPerimeter=0;fontSize=12;" parent="1" source="WF7GErT4XxJv_d4yZ23c-5" target="WF7GErT4XxJv_d4yZ23c-8" edge="1">
          <mxGeometry relative="1" as="geometry">
            <Array as="points">
              <mxPoint x="526" y="480" />
              <mxPoint x="526" y="480" />
            </Array>
          </mxGeometry>
        </mxCell>
        <mxCell id="WF7GErT4XxJv_d4yZ23c-17" style="edgeStyle=orthogonalEdgeStyle;rounded=0;orthogonalLoop=1;jettySize=auto;html=1;entryX=0.579;entryY=0;entryDx=0;entryDy=0;entryPerimeter=0;fontSize=12;" parent="1" source="WF7GErT4XxJv_d4yZ23c-5" target="WF7GErT4XxJv_d4yZ23c-8" edge="1">
          <mxGeometry relative="1" as="geometry">
            <Array as="points">
              <mxPoint x="500" y="450" />
              <mxPoint x="468" y="450" />
            </Array>
          </mxGeometry>
        </mxCell>
        <mxCell id="WF7GErT4XxJv_d4yZ23c-20" style="edgeStyle=orthogonalEdgeStyle;rounded=0;orthogonalLoop=1;jettySize=auto;html=1;entryX=0.404;entryY=-0.012;entryDx=0;entryDy=0;entryPerimeter=0;fontSize=12;" parent="1" source="WF7GErT4XxJv_d4yZ23c-4" target="WF7GErT4XxJv_d4yZ23c-8" edge="1">
          <mxGeometry relative="1" as="geometry">
            <Array as="points">
              <mxPoint x="405" y="450" />
            </Array>
          </mxGeometry>
        </mxCell>
        <mxCell id="WF7GErT4XxJv_d4yZ23c-21" style="edgeStyle=orthogonalEdgeStyle;rounded=0;orthogonalLoop=1;jettySize=auto;html=1;entryX=0.276;entryY=0;entryDx=0;entryDy=0;entryPerimeter=0;fontSize=12;" parent="1" source="WF7GErT4XxJv_d4yZ23c-4" target="WF7GErT4XxJv_d4yZ23c-8" edge="1">
          <mxGeometry relative="1" as="geometry">
            <Array as="points">
              <mxPoint x="372" y="450" />
              <mxPoint x="359" y="450" />
            </Array>
          </mxGeometry>
        </mxCell>
        <mxCell id="WF7GErT4XxJv_d4yZ23c-26" style="edgeStyle=orthogonalEdgeStyle;rounded=0;orthogonalLoop=1;jettySize=auto;html=1;entryX=0.093;entryY=0.018;entryDx=0;entryDy=0;entryPerimeter=0;fontSize=12;" parent="1" source="WF7GErT4XxJv_d4yZ23c-22" target="WF7GErT4XxJv_d4yZ23c-8" edge="1">
          <mxGeometry relative="1" as="geometry" />
        </mxCell>
        <mxCell id="WF7GErT4XxJv_d4yZ23c-22" value="" style="shape=trapezoid;perimeter=trapezoidPerimeter;whiteSpace=wrap;html=1;fixedSize=1;fontSize=12;direction=west;" parent="1" vertex="1">
          <mxGeometry x="140" y="450" width="120" height="20" as="geometry" />
        </mxCell>
        <mxCell id="WF7GErT4XxJv_d4yZ23c-23" style="edgeStyle=orthogonalEdgeStyle;rounded=0;orthogonalLoop=1;jettySize=auto;html=1;entryX=0.25;entryY=1;entryDx=0;entryDy=0;fontSize=12;" parent="1" source="WF7GErT4XxJv_d4yZ23c-4" target="WF7GErT4XxJv_d4yZ23c-22" edge="1">
          <mxGeometry relative="1" as="geometry">
            <Array as="points">
              <mxPoint x="340" y="420" />
              <mxPoint x="230" y="420" />
              <mxPoint x="230" y="450" />
            </Array>
          </mxGeometry>
        </mxCell>
        <mxCell id="WF7GErT4XxJv_d4yZ23c-27" value="" style="edgeStyle=orthogonalEdgeStyle;rounded=0;orthogonalLoop=1;jettySize=auto;html=1;fontSize=12;" parent="1" source="WF7GErT4XxJv_d4yZ23c-3" target="WF7GErT4XxJv_d4yZ23c-22" edge="1">
          <mxGeometry relative="1" as="geometry" />
        </mxCell>
        <mxCell id="WF7GErT4XxJv_d4yZ23c-28" style="edgeStyle=orthogonalEdgeStyle;rounded=0;orthogonalLoop=1;jettySize=auto;html=1;entryX=0.75;entryY=1;entryDx=0;entryDy=0;fontSize=12;" parent="1" source="WF7GErT4XxJv_d4yZ23c-2" target="WF7GErT4XxJv_d4yZ23c-22" edge="1">
          <mxGeometry relative="1" as="geometry">
            <Array as="points">
              <mxPoint x="63" y="420" />
              <mxPoint x="170" y="420" />
            </Array>
          </mxGeometry>
        </mxCell>
        <mxCell id="WF7GErT4XxJv_d4yZ23c-29" value="read port" style="text;html=1;strokeColor=none;fillColor=none;align=center;verticalAlign=middle;whiteSpace=wrap;rounded=0;fontSize=12;" parent="1" vertex="1">
          <mxGeometry x="180.0014285714286" y="520" width="84.28571428571429" height="30" as="geometry" />
        </mxCell>
        <mxCell id="v_05ihSfyz1KnlWq7NUk-1" value="现在是直接仲裁，先保留想法，后续想办法优化" style="text;html=1;align=center;verticalAlign=middle;whiteSpace=wrap;rounded=0;" vertex="1" parent="1">
          <mxGeometry x="130" y="300" width="400" height="30" as="geometry" />
        </mxCell>
      </root>
    </mxGraphModel>
  </diagram>
  <diagram id="V7XsftctjTlFc7eaOio0" name="lane_pipe">
    <mxGraphModel dx="3804" dy="1084" grid="1" gridSize="10" guides="1" tooltips="1" connect="1" arrows="1" fold="1" page="1" pageScale="1" pageWidth="850" pageHeight="1100" math="0" shadow="0">
      <root>
        <mxCell id="0" />
        <mxCell id="1" parent="0" />
        <mxCell id="nxfLMr8-TQoq2n9vPAj9-8" value="" style="shape=flexArrow;endArrow=classic;startArrow=classic;html=1;rounded=0;" parent="1" edge="1">
          <mxGeometry width="100" height="100" relative="1" as="geometry">
            <mxPoint x="210" y="890" as="sourcePoint" />
            <mxPoint x="310" y="890" as="targetPoint" />
          </mxGeometry>
        </mxCell>
        <mxCell id="nxfLMr8-TQoq2n9vPAj9-9" value="" style="shape=flexArrow;endArrow=classic;startArrow=classic;html=1;rounded=0;" parent="1" edge="1">
          <mxGeometry width="100" height="100" relative="1" as="geometry">
            <mxPoint x="210" y="570" as="sourcePoint" />
            <mxPoint x="310" y="570" as="targetPoint" />
          </mxGeometry>
        </mxCell>
        <mxCell id="nxfLMr8-TQoq2n9vPAj9-17" value="" style="group" parent="1" vertex="1" connectable="0">
          <mxGeometry x="-100" y="340" width="310" height="630" as="geometry" />
        </mxCell>
        <mxCell id="nxfLMr8-TQoq2n9vPAj9-1" value="" style="rounded=1;whiteSpace=wrap;html=1;" parent="nxfLMr8-TQoq2n9vPAj9-17" vertex="1">
          <mxGeometry width="310" height="630" as="geometry" />
        </mxCell>
        <mxCell id="nxfLMr8-TQoq2n9vPAj9-3" value="stage0" style="rounded=1;whiteSpace=wrap;html=1;direction=south;" parent="nxfLMr8-TQoq2n9vPAj9-17" vertex="1">
          <mxGeometry x="10.009999999999991" y="30" width="290" height="97.5" as="geometry" />
        </mxCell>
        <mxCell id="nxfLMr8-TQoq2n9vPAj9-4" value="stage1" style="rounded=1;whiteSpace=wrap;html=1;direction=south;" parent="nxfLMr8-TQoq2n9vPAj9-17" vertex="1">
          <mxGeometry x="10.00666666666666" y="183" width="290" height="97.5" as="geometry" />
        </mxCell>
        <mxCell id="nxfLMr8-TQoq2n9vPAj9-5" value="stage2" style="rounded=1;whiteSpace=wrap;html=1;direction=south;" parent="nxfLMr8-TQoq2n9vPAj9-17" vertex="1">
          <mxGeometry x="10" y="340" width="130" height="97.5" as="geometry" />
        </mxCell>
        <mxCell id="nxfLMr8-TQoq2n9vPAj9-6" value="stage3" style="rounded=1;whiteSpace=wrap;html=1;direction=south;" parent="nxfLMr8-TQoq2n9vPAj9-17" vertex="1">
          <mxGeometry x="10.009999999999991" y="500" width="290" height="97.5" as="geometry" />
        </mxCell>
        <mxCell id="P2OmtB6r-p32eaY7yvb4-13" value="execution unit" style="rounded=1;whiteSpace=wrap;html=1;direction=south;" parent="nxfLMr8-TQoq2n9vPAj9-17" vertex="1">
          <mxGeometry x="170.01" y="340" width="130" height="97.5" as="geometry" />
        </mxCell>
        <mxCell id="P2OmtB6r-p32eaY7yvb4-1" value="cross read" style="text;html=1;align=center;verticalAlign=middle;whiteSpace=wrap;rounded=0;" parent="1" vertex="1">
          <mxGeometry x="230" y="535" width="60" height="30" as="geometry" />
        </mxCell>
        <mxCell id="P2OmtB6r-p32eaY7yvb4-2" value="cross write" style="text;html=1;align=center;verticalAlign=middle;whiteSpace=wrap;rounded=0;" parent="1" vertex="1">
          <mxGeometry x="230" y="860" width="60" height="30" as="geometry" />
        </mxCell>
        <mxCell id="P2OmtB6r-p32eaY7yvb4-3" value="" style="shape=flexArrow;endArrow=classic;startArrow=classic;html=1;rounded=0;entryX=1.007;entryY=0.478;entryDx=0;entryDy=0;entryPerimeter=0;" parent="1" target="nxfLMr8-TQoq2n9vPAj9-6" edge="1">
          <mxGeometry width="100" height="100" relative="1" as="geometry">
            <mxPoint x="61" y="1020" as="sourcePoint" />
            <mxPoint x="560" y="660" as="targetPoint" />
          </mxGeometry>
        </mxCell>
        <mxCell id="P2OmtB6r-p32eaY7yvb4-4" value="" style="shape=flexArrow;endArrow=classic;startArrow=classic;html=1;rounded=0;" parent="1" edge="1">
          <mxGeometry width="100" height="100" relative="1" as="geometry">
            <mxPoint x="-190" y="565" as="sourcePoint" />
            <mxPoint x="-90" y="565" as="targetPoint" />
          </mxGeometry>
        </mxCell>
        <mxCell id="P2OmtB6r-p32eaY7yvb4-6" value="vrf read" style="text;html=1;align=center;verticalAlign=middle;whiteSpace=wrap;rounded=0;" parent="1" vertex="1">
          <mxGeometry x="-170" y="535" width="60" height="30" as="geometry" />
        </mxCell>
        <mxCell id="P2OmtB6r-p32eaY7yvb4-14" value="" style="shape=flexArrow;endArrow=classic;startArrow=classic;html=1;rounded=0;" parent="1" edge="1">
          <mxGeometry width="100" height="100" relative="1" as="geometry">
            <mxPoint x="210" y="730" as="sourcePoint" />
            <mxPoint x="310" y="730" as="targetPoint" />
          </mxGeometry>
        </mxCell>
        <mxCell id="P2OmtB6r-p32eaY7yvb4-16" value="vfu request" style="text;html=1;align=center;verticalAlign=middle;whiteSpace=wrap;rounded=0;" parent="1" vertex="1">
          <mxGeometry x="220" y="690" width="70" height="40" as="geometry" />
        </mxCell>
      </root>
    </mxGraphModel>
  </diagram>
  <diagram id="Entp2-2ackQVH8ud9K4W" name="execution unit">
    <mxGraphModel dx="2954" dy="1136" grid="1" gridSize="10" guides="1" tooltips="1" connect="1" arrows="1" fold="1" page="1" pageScale="1" pageWidth="850" pageHeight="1100" math="0" shadow="0">
      <root>
        <mxCell id="0" />
        <mxCell id="1" parent="0" />
        <mxCell id="Qx9Xm8RuCdxXqtbfOkMq-11" style="edgeStyle=orthogonalEdgeStyle;rounded=0;orthogonalLoop=1;jettySize=auto;html=1;shape=flexArrow;" parent="1" target="Qx9Xm8RuCdxXqtbfOkMq-10" edge="1">
          <mxGeometry relative="1" as="geometry">
            <mxPoint x="425" y="220" as="sourcePoint" />
          </mxGeometry>
        </mxCell>
        <mxCell id="Qx9Xm8RuCdxXqtbfOkMq-21" style="edgeStyle=orthogonalEdgeStyle;rounded=0;orthogonalLoop=1;jettySize=auto;html=1;exitX=1;exitY=0.25;exitDx=0;exitDy=0;shape=flexArrow;strokeWidth=1;" parent="1" edge="1">
          <mxGeometry relative="1" as="geometry">
            <mxPoint x="860" y="620.5" as="targetPoint" />
            <mxPoint x="720" y="620" as="sourcePoint" />
          </mxGeometry>
        </mxCell>
        <mxCell id="Qx9Xm8RuCdxXqtbfOkMq-22" style="edgeStyle=orthogonalEdgeStyle;rounded=0;orthogonalLoop=1;jettySize=auto;html=1;shape=flexArrow;" parent="1" target="Qx9Xm8RuCdxXqtbfOkMq-10" edge="1">
          <mxGeometry relative="1" as="geometry">
            <mxPoint x="840" y="865" as="sourcePoint" />
          </mxGeometry>
        </mxCell>
        <mxCell id="Qx9Xm8RuCdxXqtbfOkMq-30" style="edgeStyle=orthogonalEdgeStyle;rounded=0;orthogonalLoop=1;jettySize=auto;html=1;shape=flexArrow;" parent="1" source="Qx9Xm8RuCdxXqtbfOkMq-10" edge="1">
          <mxGeometry relative="1" as="geometry">
            <mxPoint x="425" y="1460" as="targetPoint" />
          </mxGeometry>
        </mxCell>
        <mxCell id="Qx9Xm8RuCdxXqtbfOkMq-10" value="" style="rounded=1;whiteSpace=wrap;html=1;" parent="1" vertex="1">
          <mxGeometry x="120" y="380" width="610" height="970" as="geometry" />
        </mxCell>
        <mxCell id="Qx9Xm8RuCdxXqtbfOkMq-12" value="enq" style="text;html=1;align=center;verticalAlign=middle;whiteSpace=wrap;rounded=0;" parent="1" vertex="1">
          <mxGeometry x="425" y="280" width="60" height="30" as="geometry" />
        </mxCell>
        <mxCell id="Qx9Xm8RuCdxXqtbfOkMq-37" style="edgeStyle=orthogonalEdgeStyle;rounded=0;orthogonalLoop=1;jettySize=auto;html=1;" parent="1" source="Qx9Xm8RuCdxXqtbfOkMq-13" target="Qx9Xm8RuCdxXqtbfOkMq-17" edge="1">
          <mxGeometry relative="1" as="geometry" />
        </mxCell>
        <mxCell id="Qx9Xm8RuCdxXqtbfOkMq-13" value="executionRecord" style="rounded=0;whiteSpace=wrap;html=1;" parent="1" vertex="1">
          <mxGeometry x="150" y="420" width="520" height="90" as="geometry" />
        </mxCell>
        <mxCell id="Qx9Xm8RuCdxXqtbfOkMq-16" value="vfu req" style="text;html=1;align=center;verticalAlign=middle;whiteSpace=wrap;rounded=0;" parent="1" vertex="1">
          <mxGeometry x="740" y="620" width="60" height="30" as="geometry" />
        </mxCell>
        <mxCell id="Qx9Xm8RuCdxXqtbfOkMq-36" style="edgeStyle=orthogonalEdgeStyle;rounded=0;orthogonalLoop=1;jettySize=auto;html=1;" parent="1" source="Qx9Xm8RuCdxXqtbfOkMq-17" target="Qx9Xm8RuCdxXqtbfOkMq-23" edge="1">
          <mxGeometry relative="1" as="geometry" />
        </mxCell>
        <mxCell id="Qx9Xm8RuCdxXqtbfOkMq-17" value="recordQueue" style="rounded=1;whiteSpace=wrap;html=1;" parent="1" vertex="1">
          <mxGeometry x="160" y="580" width="190" height="410" as="geometry" />
        </mxCell>
        <mxCell id="Qx9Xm8RuCdxXqtbfOkMq-19" value="vfu resp" style="text;html=1;align=center;verticalAlign=middle;whiteSpace=wrap;rounded=0;" parent="1" vertex="1">
          <mxGeometry x="760" y="870" width="60" height="30" as="geometry" />
        </mxCell>
        <mxCell id="Qx9Xm8RuCdxXqtbfOkMq-35" style="edgeStyle=orthogonalEdgeStyle;rounded=0;orthogonalLoop=1;jettySize=auto;html=1;" parent="1" source="Qx9Xm8RuCdxXqtbfOkMq-23" edge="1">
          <mxGeometry relative="1" as="geometry">
            <mxPoint x="425" y="1350" as="targetPoint" />
          </mxGeometry>
        </mxCell>
        <mxCell id="Qx9Xm8RuCdxXqtbfOkMq-23" value="queue" style="rounded=1;whiteSpace=wrap;html=1;" parent="1" vertex="1">
          <mxGeometry x="175" y="1140" width="500" height="160" as="geometry" />
        </mxCell>
        <mxCell id="Qx9Xm8RuCdxXqtbfOkMq-26" style="edgeStyle=orthogonalEdgeStyle;rounded=0;orthogonalLoop=1;jettySize=auto;html=1;" parent="1" source="Qx9Xm8RuCdxXqtbfOkMq-24" target="Qx9Xm8RuCdxXqtbfOkMq-25" edge="1">
          <mxGeometry relative="1" as="geometry" />
        </mxCell>
        <mxCell id="Qx9Xm8RuCdxXqtbfOkMq-28" style="edgeStyle=orthogonalEdgeStyle;rounded=0;orthogonalLoop=1;jettySize=auto;html=1;entryX=0.75;entryY=0;entryDx=0;entryDy=0;" parent="1" source="Qx9Xm8RuCdxXqtbfOkMq-24" target="Qx9Xm8RuCdxXqtbfOkMq-23" edge="1">
          <mxGeometry relative="1" as="geometry" />
        </mxCell>
        <mxCell id="pur666F64Me8htvFEJn_-3" style="edgeStyle=orthogonalEdgeStyle;rounded=0;orthogonalLoop=1;jettySize=auto;html=1;" edge="1" parent="1" source="Qx9Xm8RuCdxXqtbfOkMq-24" target="pur666F64Me8htvFEJn_-1">
          <mxGeometry relative="1" as="geometry" />
        </mxCell>
        <mxCell id="Qx9Xm8RuCdxXqtbfOkMq-24" value="dataDeqeue" style="rounded=1;whiteSpace=wrap;html=1;dashed=1;" parent="1" vertex="1">
          <mxGeometry x="570" y="930" width="120" height="60" as="geometry" />
        </mxCell>
        <mxCell id="Qx9Xm8RuCdxXqtbfOkMq-27" style="edgeStyle=orthogonalEdgeStyle;rounded=0;orthogonalLoop=1;jettySize=auto;html=1;entryX=0.75;entryY=0;entryDx=0;entryDy=0;" parent="1" source="Qx9Xm8RuCdxXqtbfOkMq-25" target="Qx9Xm8RuCdxXqtbfOkMq-23" edge="1">
          <mxGeometry relative="1" as="geometry" />
        </mxCell>
        <mxCell id="Qx9Xm8RuCdxXqtbfOkMq-25" value="crossWriteLSB" style="rounded=1;whiteSpace=wrap;html=1;" parent="1" vertex="1">
          <mxGeometry x="410" y="930" width="120" height="60" as="geometry" />
        </mxCell>
        <mxCell id="Qx9Xm8RuCdxXqtbfOkMq-31" value="dequeue" style="text;html=1;align=center;verticalAlign=middle;whiteSpace=wrap;rounded=0;" parent="1" vertex="1">
          <mxGeometry x="440" y="1400" width="60" height="30" as="geometry" />
        </mxCell>
        <mxCell id="Qx9Xm8RuCdxXqtbfOkMq-38" value="doubleExecutionInRecord" style="rounded=1;whiteSpace=wrap;html=1;dashed=1;" parent="1" vertex="1">
          <mxGeometry x="550" y="520" width="120" height="60" as="geometry" />
        </mxCell>
        <mxCell id="pur666F64Me8htvFEJn_-5" style="edgeStyle=orthogonalEdgeStyle;rounded=0;orthogonalLoop=1;jettySize=auto;html=1;entryX=1;entryY=0.5;entryDx=0;entryDy=0;" edge="1" parent="1" source="pur666F64Me8htvFEJn_-1" target="Qx9Xm8RuCdxXqtbfOkMq-23">
          <mxGeometry relative="1" as="geometry">
            <Array as="points">
              <mxPoint x="710" y="840" />
              <mxPoint x="710" y="1220" />
            </Array>
          </mxGeometry>
        </mxCell>
        <mxCell id="pur666F64Me8htvFEJn_-1" value="reduceResu&lt;span style=&quot;background-color: initial;&quot;&gt;lt /&lt;/span&gt;&lt;div&gt;&lt;div&gt;maskFormatResult&lt;/div&gt;&lt;/div&gt;" style="rounded=1;whiteSpace=wrap;html=1;" vertex="1" parent="1">
          <mxGeometry x="570" y="810" width="120" height="60" as="geometry" />
        </mxCell>
        <mxCell id="pur666F64Me8htvFEJn_-4" value="sSendResponse" style="rounded=1;whiteSpace=wrap;html=1;dashed=1;" vertex="1" parent="1">
          <mxGeometry x="410" y="810" width="120" height="60" as="geometry" />
        </mxCell>
        <mxCell id="KgQCVkKxDnfXyiFYASn8-3" style="edgeStyle=orthogonalEdgeStyle;rounded=0;orthogonalLoop=1;jettySize=auto;html=1;" edge="1" parent="1" source="KgQCVkKxDnfXyiFYASn8-1" target="pur666F64Me8htvFEJn_-1">
          <mxGeometry relative="1" as="geometry" />
        </mxCell>
        <mxCell id="KgQCVkKxDnfXyiFYASn8-1" value="reduceReady" style="rounded=1;whiteSpace=wrap;html=1;" vertex="1" parent="1">
          <mxGeometry x="570" y="680" width="120" height="60" as="geometry" />
        </mxCell>
        <mxCell id="KgQCVkKxDnfXyiFYASn8-4" value="collapse reduce&amp;nbsp; result" style="text;html=1;align=center;verticalAlign=middle;whiteSpace=wrap;rounded=0;" vertex="1" parent="1">
          <mxGeometry x="560" y="760" width="60" height="30" as="geometry" />
        </mxCell>
        <mxCell id="KgQCVkKxDnfXyiFYASn8-5" value="tag: wh&lt;span style=&quot;background-color: initial;&quot;&gt;ich slot&lt;/span&gt;" style="text;html=1;align=center;verticalAlign=middle;whiteSpace=wrap;rounded=0;" vertex="1" parent="1">
          <mxGeometry x="790" y="570" width="230" height="30" as="geometry" />
        </mxCell>
      </root>
    </mxGraphModel>
  </diagram>
  <diagram id="4yXBt_JhEyRInnGMZZ6C" name="stage1">
    <mxGraphModel dx="3804" dy="1084" grid="1" gridSize="10" guides="1" tooltips="1" connect="1" arrows="1" fold="1" page="1" pageScale="1" pageWidth="850" pageHeight="1100" math="0" shadow="0">
      <root>
        <mxCell id="0" />
        <mxCell id="1" parent="0" />
        <mxCell id="lZKGfLMlIIOgypqjl0lZ-2" value="" style="rounded=1;whiteSpace=wrap;html=1;" parent="1" vertex="1">
          <mxGeometry x="50" y="230" width="560" height="1230" as="geometry" />
        </mxCell>
        <mxCell id="lZKGfLMlIIOgypqjl0lZ-8" value="" style="group" parent="1" vertex="1" connectable="0">
          <mxGeometry x="100" y="270" width="60" height="710" as="geometry" />
        </mxCell>
        <mxCell id="lZKGfLMlIIOgypqjl0lZ-7" style="edgeStyle=orthogonalEdgeStyle;rounded=0;orthogonalLoop=1;jettySize=auto;html=1;entryX=0.5;entryY=0;entryDx=0;entryDy=0;" parent="lZKGfLMlIIOgypqjl0lZ-8" source="lZKGfLMlIIOgypqjl0lZ-3" target="lZKGfLMlIIOgypqjl0lZ-4" edge="1">
          <mxGeometry relative="1" as="geometry" />
        </mxCell>
        <mxCell id="lZKGfLMlIIOgypqjl0lZ-3" value="vs1" style="rounded=1;whiteSpace=wrap;html=1;" parent="lZKGfLMlIIOgypqjl0lZ-8" vertex="1">
          <mxGeometry width="60" height="190" as="geometry" />
        </mxCell>
        <mxCell id="lZKGfLMlIIOgypqjl0lZ-4" value="vs1" style="rounded=1;whiteSpace=wrap;html=1;" parent="lZKGfLMlIIOgypqjl0lZ-8" vertex="1">
          <mxGeometry y="255" width="60" height="190" as="geometry" />
        </mxCell>
        <mxCell id="lZKGfLMlIIOgypqjl0lZ-10" value="" style="group" parent="1" vertex="1" connectable="0">
          <mxGeometry x="180" y="270" width="60" height="710" as="geometry" />
        </mxCell>
        <mxCell id="lZKGfLMlIIOgypqjl0lZ-11" style="edgeStyle=orthogonalEdgeStyle;rounded=0;orthogonalLoop=1;jettySize=auto;html=1;entryX=0.5;entryY=0;entryDx=0;entryDy=0;" parent="lZKGfLMlIIOgypqjl0lZ-10" source="lZKGfLMlIIOgypqjl0lZ-12" target="lZKGfLMlIIOgypqjl0lZ-13" edge="1">
          <mxGeometry relative="1" as="geometry" />
        </mxCell>
        <mxCell id="lZKGfLMlIIOgypqjl0lZ-12" value="vs2" style="rounded=1;whiteSpace=wrap;html=1;" parent="lZKGfLMlIIOgypqjl0lZ-10" vertex="1">
          <mxGeometry width="60" height="190" as="geometry" />
        </mxCell>
        <mxCell id="lZKGfLMlIIOgypqjl0lZ-13" value="vs2" style="rounded=1;whiteSpace=wrap;html=1;" parent="lZKGfLMlIIOgypqjl0lZ-10" vertex="1">
          <mxGeometry y="255" width="60" height="190" as="geometry" />
        </mxCell>
        <mxCell id="lZKGfLMlIIOgypqjl0lZ-15" value="" style="group" parent="1" vertex="1" connectable="0">
          <mxGeometry x="270" y="270" width="60" height="710" as="geometry" />
        </mxCell>
        <mxCell id="lZKGfLMlIIOgypqjl0lZ-16" style="edgeStyle=orthogonalEdgeStyle;rounded=0;orthogonalLoop=1;jettySize=auto;html=1;entryX=0.5;entryY=0;entryDx=0;entryDy=0;" parent="lZKGfLMlIIOgypqjl0lZ-15" source="lZKGfLMlIIOgypqjl0lZ-17" target="lZKGfLMlIIOgypqjl0lZ-18" edge="1">
          <mxGeometry relative="1" as="geometry" />
        </mxCell>
        <mxCell id="lZKGfLMlIIOgypqjl0lZ-17" value="lsb" style="rounded=1;whiteSpace=wrap;html=1;" parent="lZKGfLMlIIOgypqjl0lZ-15" vertex="1">
          <mxGeometry width="60" height="190" as="geometry" />
        </mxCell>
        <mxCell id="lZKGfLMlIIOgypqjl0lZ-18" value="lsb" style="rounded=1;whiteSpace=wrap;html=1;" parent="lZKGfLMlIIOgypqjl0lZ-15" vertex="1">
          <mxGeometry y="255" width="60" height="190" as="geometry" />
        </mxCell>
        <mxCell id="lZKGfLMlIIOgypqjl0lZ-20" value="" style="group" parent="1" vertex="1" connectable="0">
          <mxGeometry x="350" y="270" width="60" height="710" as="geometry" />
        </mxCell>
        <mxCell id="lZKGfLMlIIOgypqjl0lZ-21" style="edgeStyle=orthogonalEdgeStyle;rounded=0;orthogonalLoop=1;jettySize=auto;html=1;entryX=0.5;entryY=0;entryDx=0;entryDy=0;" parent="lZKGfLMlIIOgypqjl0lZ-20" source="lZKGfLMlIIOgypqjl0lZ-22" target="lZKGfLMlIIOgypqjl0lZ-23" edge="1">
          <mxGeometry relative="1" as="geometry" />
        </mxCell>
        <mxCell id="lZKGfLMlIIOgypqjl0lZ-22" value="vd" style="rounded=1;whiteSpace=wrap;html=1;" parent="lZKGfLMlIIOgypqjl0lZ-20" vertex="1">
          <mxGeometry width="60" height="190" as="geometry" />
        </mxCell>
        <mxCell id="lZKGfLMlIIOgypqjl0lZ-23" value="vd" style="rounded=1;whiteSpace=wrap;html=1;" parent="lZKGfLMlIIOgypqjl0lZ-20" vertex="1">
          <mxGeometry y="255" width="60" height="190" as="geometry" />
        </mxCell>
        <mxCell id="lZKGfLMlIIOgypqjl0lZ-25" value="" style="group" parent="1" vertex="1" connectable="0">
          <mxGeometry x="430" y="270" width="60" height="710" as="geometry" />
        </mxCell>
        <mxCell id="lZKGfLMlIIOgypqjl0lZ-26" style="edgeStyle=orthogonalEdgeStyle;rounded=0;orthogonalLoop=1;jettySize=auto;html=1;entryX=0.5;entryY=0;entryDx=0;entryDy=0;" parent="lZKGfLMlIIOgypqjl0lZ-25" source="lZKGfLMlIIOgypqjl0lZ-27" target="lZKGfLMlIIOgypqjl0lZ-28" edge="1">
          <mxGeometry relative="1" as="geometry" />
        </mxCell>
        <mxCell id="lZKGfLMlIIOgypqjl0lZ-27" value="msb" style="rounded=1;whiteSpace=wrap;html=1;" parent="lZKGfLMlIIOgypqjl0lZ-25" vertex="1">
          <mxGeometry width="60" height="190" as="geometry" />
        </mxCell>
        <mxCell id="lZKGfLMlIIOgypqjl0lZ-28" value="msb" style="rounded=1;whiteSpace=wrap;html=1;" parent="lZKGfLMlIIOgypqjl0lZ-25" vertex="1">
          <mxGeometry y="255" width="60" height="190" as="geometry" />
        </mxCell>
        <mxCell id="lZKGfLMlIIOgypqjl0lZ-30" value="Queue before check" style="text;html=1;align=center;verticalAlign=middle;whiteSpace=wrap;rounded=0;" parent="1" vertex="1">
          <mxGeometry x="-160" y="390" width="180" height="30" as="geometry" />
        </mxCell>
        <mxCell id="lZKGfLMlIIOgypqjl0lZ-36" value="Queue after check" style="text;html=1;align=center;verticalAlign=middle;whiteSpace=wrap;rounded=0;" parent="1" vertex="1">
          <mxGeometry x="-160" y="615" width="180" height="30" as="geometry" />
        </mxCell>
        <mxCell id="lZKGfLMlIIOgypqjl0lZ-37" value="data queue" style="text;html=1;align=center;verticalAlign=middle;whiteSpace=wrap;rounded=0;" parent="1" vertex="1">
          <mxGeometry x="-150" y="1010" width="180" height="30" as="geometry" />
        </mxCell>
        <mxCell id="lZKGfLMlIIOgypqjl0lZ-43" value="pipe queue" style="rounded=1;whiteSpace=wrap;html=1;" parent="1" vertex="1">
          <mxGeometry x="510" y="270" width="60" height="1060" as="geometry" />
        </mxCell>
        <mxCell id="lZKGfLMlIIOgypqjl0lZ-6" value="vs1" style="rounded=1;whiteSpace=wrap;html=1;" parent="1" vertex="1">
          <mxGeometry x="100" y="930" width="60" height="190" as="geometry" />
        </mxCell>
        <mxCell id="lZKGfLMlIIOgypqjl0lZ-14" value="vs2" style="rounded=1;whiteSpace=wrap;html=1;container=1;" parent="1" vertex="1">
          <mxGeometry x="180" y="930" width="60" height="190" as="geometry" />
        </mxCell>
        <mxCell id="lZKGfLMlIIOgypqjl0lZ-63" style="edgeStyle=orthogonalEdgeStyle;rounded=0;orthogonalLoop=1;jettySize=auto;html=1;entryX=0.5;entryY=0;entryDx=0;entryDy=0;" parent="1" source="lZKGfLMlIIOgypqjl0lZ-19" target="lZKGfLMlIIOgypqjl0lZ-62" edge="1">
          <mxGeometry relative="1" as="geometry" />
        </mxCell>
        <mxCell id="lZKGfLMlIIOgypqjl0lZ-19" value="lsb" style="rounded=1;whiteSpace=wrap;html=1;" parent="1" vertex="1">
          <mxGeometry x="270" y="930" width="60" height="190" as="geometry" />
        </mxCell>
        <mxCell id="lZKGfLMlIIOgypqjl0lZ-64" style="edgeStyle=orthogonalEdgeStyle;rounded=0;orthogonalLoop=1;jettySize=auto;html=1;" parent="1" source="lZKGfLMlIIOgypqjl0lZ-24" target="lZKGfLMlIIOgypqjl0lZ-62" edge="1">
          <mxGeometry relative="1" as="geometry" />
        </mxCell>
        <mxCell id="lZKGfLMlIIOgypqjl0lZ-24" value="msb" style="rounded=1;whiteSpace=wrap;html=1;" parent="1" vertex="1">
          <mxGeometry x="350" y="930" width="60" height="190" as="geometry" />
        </mxCell>
        <mxCell id="lZKGfLMlIIOgypqjl0lZ-29" value="vd" style="rounded=1;whiteSpace=wrap;html=1;" parent="1" vertex="1">
          <mxGeometry x="440" y="930" width="60" height="190" as="geometry" />
        </mxCell>
        <mxCell id="lZKGfLMlIIOgypqjl0lZ-44" value="0" style="rounded=0;whiteSpace=wrap;html=1;" parent="1" vertex="1">
          <mxGeometry x="100" y="750" width="60" height="130" as="geometry" />
        </mxCell>
        <mxCell id="lZKGfLMlIIOgypqjl0lZ-45" value="read pipe" style="text;html=1;align=center;verticalAlign=middle;whiteSpace=wrap;rounded=0;" parent="1" vertex="1">
          <mxGeometry x="-160" y="800" width="180" height="30" as="geometry" />
        </mxCell>
        <mxCell id="lZKGfLMlIIOgypqjl0lZ-58" style="edgeStyle=orthogonalEdgeStyle;rounded=0;orthogonalLoop=1;jettySize=auto;html=1;" parent="1" source="lZKGfLMlIIOgypqjl0lZ-47" target="lZKGfLMlIIOgypqjl0lZ-14" edge="1">
          <mxGeometry relative="1" as="geometry" />
        </mxCell>
        <mxCell id="lZKGfLMlIIOgypqjl0lZ-59" style="edgeStyle=orthogonalEdgeStyle;rounded=0;orthogonalLoop=1;jettySize=auto;html=1;" parent="1" source="lZKGfLMlIIOgypqjl0lZ-47" target="lZKGfLMlIIOgypqjl0lZ-19" edge="1">
          <mxGeometry relative="1" as="geometry" />
        </mxCell>
        <mxCell id="lZKGfLMlIIOgypqjl0lZ-47" value="1" style="rounded=0;whiteSpace=wrap;html=1;" parent="1" vertex="1">
          <mxGeometry x="230" y="750" width="60" height="130" as="geometry" />
        </mxCell>
        <mxCell id="lZKGfLMlIIOgypqjl0lZ-60" style="edgeStyle=orthogonalEdgeStyle;rounded=0;orthogonalLoop=1;jettySize=auto;html=1;" parent="1" source="lZKGfLMlIIOgypqjl0lZ-48" target="lZKGfLMlIIOgypqjl0lZ-24" edge="1">
          <mxGeometry relative="1" as="geometry" />
        </mxCell>
        <mxCell id="lZKGfLMlIIOgypqjl0lZ-61" style="edgeStyle=orthogonalEdgeStyle;rounded=0;orthogonalLoop=1;jettySize=auto;html=1;" parent="1" source="lZKGfLMlIIOgypqjl0lZ-48" target="lZKGfLMlIIOgypqjl0lZ-29" edge="1">
          <mxGeometry relative="1" as="geometry" />
        </mxCell>
        <mxCell id="lZKGfLMlIIOgypqjl0lZ-48" value="2" style="rounded=0;whiteSpace=wrap;html=1;" parent="1" vertex="1">
          <mxGeometry x="395" y="750" width="60" height="130" as="geometry" />
        </mxCell>
        <mxCell id="lZKGfLMlIIOgypqjl0lZ-49" style="edgeStyle=orthogonalEdgeStyle;rounded=0;orthogonalLoop=1;jettySize=auto;html=1;entryX=0.5;entryY=0;entryDx=0;entryDy=0;" parent="1" source="lZKGfLMlIIOgypqjl0lZ-4" target="lZKGfLMlIIOgypqjl0lZ-44" edge="1">
          <mxGeometry relative="1" as="geometry" />
        </mxCell>
        <mxCell id="lZKGfLMlIIOgypqjl0lZ-50" style="edgeStyle=orthogonalEdgeStyle;rounded=0;orthogonalLoop=1;jettySize=auto;html=1;entryX=0.5;entryY=0;entryDx=0;entryDy=0;" parent="1" source="lZKGfLMlIIOgypqjl0lZ-13" target="lZKGfLMlIIOgypqjl0lZ-47" edge="1">
          <mxGeometry relative="1" as="geometry" />
        </mxCell>
        <mxCell id="lZKGfLMlIIOgypqjl0lZ-51" style="edgeStyle=orthogonalEdgeStyle;rounded=0;orthogonalLoop=1;jettySize=auto;html=1;entryX=0.5;entryY=0;entryDx=0;entryDy=0;" parent="1" source="lZKGfLMlIIOgypqjl0lZ-18" target="lZKGfLMlIIOgypqjl0lZ-47" edge="1">
          <mxGeometry relative="1" as="geometry" />
        </mxCell>
        <mxCell id="lZKGfLMlIIOgypqjl0lZ-56" style="edgeStyle=orthogonalEdgeStyle;rounded=0;orthogonalLoop=1;jettySize=auto;html=1;" parent="1" source="lZKGfLMlIIOgypqjl0lZ-23" target="lZKGfLMlIIOgypqjl0lZ-48" edge="1">
          <mxGeometry relative="1" as="geometry" />
        </mxCell>
        <mxCell id="lZKGfLMlIIOgypqjl0lZ-57" style="edgeStyle=orthogonalEdgeStyle;rounded=0;orthogonalLoop=1;jettySize=auto;html=1;entryX=0.5;entryY=0;entryDx=0;entryDy=0;" parent="1" source="lZKGfLMlIIOgypqjl0lZ-28" target="lZKGfLMlIIOgypqjl0lZ-48" edge="1">
          <mxGeometry relative="1" as="geometry" />
        </mxCell>
        <mxCell id="lZKGfLMlIIOgypqjl0lZ-67" style="edgeStyle=orthogonalEdgeStyle;rounded=0;orthogonalLoop=1;jettySize=auto;html=1;entryX=0.5;entryY=0;entryDx=0;entryDy=0;" parent="1" source="lZKGfLMlIIOgypqjl0lZ-62" target="lZKGfLMlIIOgypqjl0lZ-65" edge="1">
          <mxGeometry relative="1" as="geometry" />
        </mxCell>
        <mxCell id="lZKGfLMlIIOgypqjl0lZ-62" value="crossReadU&lt;span style=&quot;background-color: initial;&quot;&gt;nit&lt;/span&gt;" style="rounded=1;whiteSpace=wrap;html=1;" parent="1" vertex="1">
          <mxGeometry x="280" y="1190" width="120" height="60" as="geometry" />
        </mxCell>
        <mxCell id="lZKGfLMlIIOgypqjl0lZ-65" value="crossReadResultQueue" style="rounded=1;whiteSpace=wrap;html=1;" parent="1" vertex="1">
          <mxGeometry x="310" y="1270" width="60" height="130" as="geometry" />
        </mxCell>
        <mxCell id="lZKGfLMlIIOgypqjl0lZ-72" value="" style="shape=flexArrow;endArrow=classic;startArrow=classic;html=1;rounded=0;" parent="1" edge="1">
          <mxGeometry width="100" height="100" relative="1" as="geometry">
            <mxPoint x="280" y="1219.66" as="sourcePoint" />
            <mxPoint x="-60" y="1220" as="targetPoint" />
          </mxGeometry>
        </mxCell>
        <mxCell id="lZKGfLMlIIOgypqjl0lZ-74" value="crossRead bus" style="text;html=1;align=center;verticalAlign=middle;whiteSpace=wrap;rounded=0;" parent="1" vertex="1">
          <mxGeometry x="90" y="1180" width="100" height="30" as="geometry" />
        </mxCell>
        <mxCell id="lZKGfLMlIIOgypqjl0lZ-79" value="vrf read req" style="text;html=1;align=center;verticalAlign=middle;whiteSpace=wrap;rounded=0;" parent="1" vertex="1">
          <mxGeometry x="-50" y="840" width="90" height="30" as="geometry" />
        </mxCell>
        <mxCell id="lZKGfLMlIIOgypqjl0lZ-80" value="" style="shape=flexArrow;endArrow=classic;html=1;rounded=0;" parent="1" edge="1">
          <mxGeometry width="50" height="50" relative="1" as="geometry">
            <mxPoint x="100" y="870" as="sourcePoint" />
            <mxPoint x="-80" y="870" as="targetPoint" />
          </mxGeometry>
        </mxCell>
        <mxCell id="lZKGfLMlIIOgypqjl0lZ-81" value="" style="shape=flexArrow;endArrow=classic;html=1;rounded=0;" parent="1" edge="1">
          <mxGeometry width="50" height="50" relative="1" as="geometry">
            <mxPoint x="-80" y="940" as="sourcePoint" />
            <mxPoint x="100" y="940" as="targetPoint" />
          </mxGeometry>
        </mxCell>
        <mxCell id="lZKGfLMlIIOgypqjl0lZ-82" value="read result" style="text;html=1;align=center;verticalAlign=middle;whiteSpace=wrap;rounded=0;" parent="1" vertex="1">
          <mxGeometry x="-50" y="910" width="90" height="30" as="geometry" />
        </mxCell>
        <mxCell id="O4KS8gCrnFC1tSlfQUgT-1" value="" style="group" vertex="1" connectable="0" parent="1">
          <mxGeometry x="-100" y="470" width="230" height="40" as="geometry" />
        </mxCell>
        <mxCell id="lZKGfLMlIIOgypqjl0lZ-76" value="read check" style="text;html=1;align=center;verticalAlign=middle;whiteSpace=wrap;rounded=0;" parent="O4KS8gCrnFC1tSlfQUgT-1" vertex="1">
          <mxGeometry x="50" width="90" height="30" as="geometry" />
        </mxCell>
        <mxCell id="lZKGfLMlIIOgypqjl0lZ-75" value="" style="shape=flexArrow;endArrow=classic;startArrow=classic;html=1;rounded=0;" parent="1" edge="1">
          <mxGeometry width="100" height="100" relative="1" as="geometry">
            <mxPoint x="120" y="500" as="sourcePoint" />
            <mxPoint x="-110" y="500" as="targetPoint" />
          </mxGeometry>
        </mxCell>
      </root>
    </mxGraphModel>
  </diagram>
  <diagram id="N9SMAUFcEhhgpRuBySMW" name="chaining check">
    <mxGraphModel dx="2954" dy="1084" grid="1" gridSize="10" guides="1" tooltips="1" connect="1" arrows="1" fold="1" page="1" pageScale="1" pageWidth="850" pageHeight="1100" math="0" shadow="0">
      <root>
        <mxCell id="0" />
        <mxCell id="1" parent="0" />
      </root>
    </mxGraphModel>
  </diagram>
</mxfile>
